<?xml version="1.0" encoding="utf-8"?>
<!-- Generator: Adobe Illustrator 23.0.2, SVG Export Plug-In . SVG Version: 6.00 Build 0)  -->
<svg version="1.1" id="Capa_1" xmlns="http://www.w3.org/2000/svg" xmlns:xlink="http://www.w3.org/1999/xlink" x="0px" y="0px"
	 viewBox="0 0 3061.42 3061.42" style="enable-background:new 0 0 3061.42 3061.42;" xml:space="preserve">
<style type="text/css">
	.st0{fill:#FEFEFE;}
	.st1{fill:#0A0A0A;}
	.st2{fill:#F8B795;}
	.st3{fill:#FF0202;}
	.st4{fill:#E00303;}
	.st5{fill:#FFFFFF;}
	.st6{fill:#050505;}
	.st7{fill:#595959;}
</style>
<path class="st0" d="M1361.26,1122.64c0,0-82.43,23.9-158.26,117.87c-75.83,93.97-172.46,275.69-14.93,345.98
	s173.19,23.81,173.19,23.81s110.45-61.51,136.83-89.54c26.38-28.03,112.1-142.6,112.93-195.35c0.82-52.75-37.09-319-37.09-319
	l-192.06,56.05L1361.26,1122.64z"/>
<path class="st1" d="M1274.58,1156.08c-6.9-2.7-14.4-2.37-21.5-4.53c-9.93-3.02-19.62-6.4-28.63-11.53
	c-3.91-2.23-7.81-4.41-11.89-6.33c-11.15-5.26-21.63-11.85-30.55-20.23c-8.4-7.89-17.41-15.06-24.82-24.26
	c-6.95-8.63-14.14-17.02-20.23-26.33c-9.35-14.29-16.86-29.66-20.62-46.14c-6.56-28.81-8.63-58.25-5.28-87.7
	c2.5-21.99,1.32-43.99,1.99-65.97c1.56-51.48,7.93-102.35,18.23-152.8c3.27-15.99,5.64-32.2,8.58-48.26
	c4.45-24.3,11.6-47.85,30.12-65.98c15.52-15.18,33.85-19.93,54.9-15.36c33.14,7.18,57.94,27.19,79.68,51.82
	c11.91,13.49,21.56,28.7,32.14,43.2c0,0.76,0.4,1.19,1.14,1.32c0,0,0.03,0.04,0.03,0.04c-0.04,0.9,0.35,1.47,1.25,1.68
	c0,0-0.05-0.06-0.04-0.06c0.01,1.28,0.7,2.09,1.8,2.62c0,0,0.07,0.11,0.07,0.11c-0.07,0.9,0.37,1.41,1.23,1.61
	c0,0-0.02-0.02-0.02-0.02c-0.04,0.88,0.35,1.46,1.2,1.72c6.99,10.42,15.36,19.4,26.47,25.56c5.49,3.04,11.53,3.64,17.62,4
	c15.54,0.93,30.06-1.5,43.03-11.14c9.47-7.04,16.82-15.79,23.4-25.34c8.14-11.81,14.52-24.69,22.03-36.89
	c5.69-9.24,11.54-18.38,19.23-26.14c9.22-9.3,19.29-17.53,31.9-21.69c10.31-3.4,20.73-3.47,31.36-0.18
	c19.28,5.98,32.26,18.93,42.27,35.76c6.95,11.69,10.44,24.82,16.05,37.04c9.04,19.72,12.42,41,17.8,61.74
	c5.96,22.97,10.28,46.3,15.82,69.36c2.2,9.16,6.62,17.55,9.08,26.62c5.17,19.07,8.23,38.56,11.86,57.94
	c3.46,18.54,6.81,37.1,14.26,54.65c1.52,3.57,2.71,3.5,5.14,1.57c7.07-5.58,13.96-11.4,21.2-16.74
	c10.55-7.78,21.31-15.27,32.08-22.74c0.88-0.61,1.93-1.32,2.99-1.68c3.11-1.05,6.55,0.73,8.49,3.73c2.03,3.14,1.14,5.58-1.38,7.68
	c-2.23,1.85-4.65,3.47-7.02,5.16c-2.17,1.55-4.4,3.01-6.54,4.61c-1.28,0.96-3.37,1.78-2.06,3.94c1.01,1.65,2.52,0.81,3.86,0.15
	c0.65-0.32,1.34-0.61,2.03-0.82c3.55-1.07,6.17,0.18,8.09,3.24c1.96,3.13,0.81,5.5-1.68,7.66c-2.66,2.31-5.65,3.88-8.81,5.52
	c-11.46,5.95-22.48,12.76-33.65,19.29c-1.28,0.75-2.47,1.78-1.79,3.52c0.95,2.42,2.77,1.14,4.34,0.89
	c5.66-0.89,10.51-4.32,16.24-5.13c1.64-0.23,3.29-1.22,4.92-0.58c2.72,1.07,5.49,2.24,5.69,5.88c0.23,4.14-2.84,6.81-5.62,7.78
	c-7.62,2.66-15.6,4.26-23.45,6.25c-2.35,0.59-4.11-1.28-6.15-1.62c-0.92,0.33-1,1.08-0.92,1.72c3.33,28.49-5.44,53.65-21.39,76.7
	c-7.21,10.43-15.6,19.94-24.67,28.84c-3.15,3.09-6.41,4.38-10.47,1.91c-1-1.44-2-2.87-3-4.31c-0.03-4.21,3.1-6.45,5.7-8.98
	c15.59-15.19,28.67-32.09,35.91-52.93c7.66-22.04,7.71-43.48-4.63-64.18c-5.52-9.26-9.17-19.41-12.26-29.75
	c-5.39-18.08-8.4-36.66-11.68-55.18c-2.89-16.36-5.39-32.89-11.18-48.5c-4.27-11.5-7.93-23.05-10.24-35.09
	c-4.93-25.68-12.18-50.83-17.53-76.41c-4.9-23.4-14.79-44.92-24.1-66.67c-2.9-6.76-7.37-12.67-12.24-18.21
	c-4.72-5.36-10.01-10.05-16.36-13.43c-12.84-6.86-25.64-7.08-38.46,0.13c-4.72,2.66-9.01,5.87-13.03,9.47
	c-9.92,8.9-17.99,19.25-24.61,30.82c-10.55,18.44-20.36,37.38-34.68,53.39c-0.23,0.26-0.07,0.88-0.12,1.81
	c9.37,0.85,18.6,2.77,27.87,4.5c34.41,9.31,64.51,26.86,92.6,48.29c6.18,4.72,12.34,9.46,18.52,14.19c2.36,2.11,4.68,4.26,7.08,6.31
	c6.67,5.73,13.46,11.32,20.04,17.16c3.18,2.82,3.48,5.55,1.58,8.37c-2.13,3.15-6.23,4.14-9.7,2.13c-1.46-0.85-2.7-2.09-4-3.19
	c-7.46-6.31-14.85-12.71-22.37-18.95c-20.33-16.87-41.53-32.49-65.09-44.67c-19.45-10.05-39.81-17.41-61.63-19.9
	c-11.03-1.26-22.25-2.97-32.7,3.45c-3.01,1.85-6.89,2.39-10.43,3.24c-16.78,4.05-33.43,2.7-50-1.32c-0.97-1.07-1.75-2.47-2.95-3.16
	c-13.7-7.93-23.52-19.74-32.43-32.42c-6.04-8.6-11.7-17.47-17.73-26.08c-14.55-20.8-31.42-39.35-52.69-53.55
	c-8.58-5.73-17.66-10.42-27.64-13.26c-24.4-6.94-44.05,0.9-56.81,22.75c-5.46,9.35-9.14,19.45-12.27,29.75
	c-24.92,82.02-36.75,165.89-35.4,251.62c0.1,6.32,0.99,12.71-0.53,19c-0.28,0.92-0.71,1.82-0.81,2.76
	c-1.74,16.58-2.07,33.2-1.39,49.85c1.49,36.53,13.33,69.24,35.59,98.34c20.08,26.26,45.74,45.22,75.22,59.54
	c15.59,7.57,32.06,11.67,49.16,13.73c4.66,0.56,9.38-0.69,13.89,0.13c25.81,4.67,51.81,6.94,78.02,6.9c2.64,0,5.13,0.48,7.23,1.68
	c1.58-1.96,1.56-3.71,1.86-5.37c1.56-8.66,2.84-17.37,4.72-25.96c2.92-13.41,6.58-26.64,14.87-37.94
	c12.28-16.75,29.01-24.5,49.62-22.59c27.23,2.53,47.33,20.36,54.39,47.2c3.21,12.2,3.59,24.64,3.42,37.14
	c-0.03,1.86-0.92,3.88,0.78,5.67c5.82-0.05,11.6-1.06,17.35-2.14c10.14-1.9,10.04-2.02,12.24-11.86
	c3.52-15.73,6.77-31.54,13.1-46.48c4.74-11.2,11.12-21.23,20.63-29c16.07-13.13,34.89-12.98,50.93,0.21
	c5.97,4.91,10.21,11.14,13.99,17.76c0.63,2.01,1.02,4.13,2.66,5.67c8.18,23.67,11.09,48.4,14.24,73.03
	c3.48,27.19,5.41,54.52,4.53,81.98c-1.15,35.94-6.6,71.12-18.79,105.07c-4.24,11.81-8.75,23.54-16.27,33.79
	c-5.26,7.18-12.14,12.49-20.12,16.15c-4.12,1.89-8.84,2.2-13.41,2.47c-1.69,0.1-3.42-0.4-5.54,0.56c1.98,3.61,0.03,6.6-1.91,9.6
	c-9.71,14.99-19.61,29.85-30.05,44.36c-10.2,14.16-21.26,27.66-31.84,41.52c-0.9,0.21-1.12,0.98-1.06,1.68
	c0.06,0.65,0.61,0.72,1.11,0.26c27.44-2.85,54.21,13.86,62.28,41.69c4.33,14.94-0.62,29.14-13.93,36.19
	c-5.16,2.73-11.22,3.92-17.13,4.86c-20.61,3.28-41.21,4.87-62.09,1.93c-12.9-1.81-24.54-5.92-35.02-13.61
	c-5.15-3.78-5.5-3.91-10.54,0.1c-10.83,8.63-22.99,15.15-34.96,21.84c-8.2,4.58-17.29,7.69-26.41,10.25
	c-2.38,0.67-5.46,1.21-7.04-2.06c-1.67-3.45-0.88-8.12,2.03-9.9c1.84-1.12,4.02-1.73,6.09-2.45c20.8-7.19,39.29-18.52,56.79-31.64
	c1.39-1.04,2.7-2.14,3.39-3.77c0.7-1.66,1.81-3.23,3.43-3.64c7.11-1.78,11.37-7.44,16.33-11.96c31.1-28.32,57.57-60.67,81.88-94.85
	c7.51-10.56,14.63-21.4,21.82-32.19c1.31-1.97,3.22-3.73,3.26-6.71c-20.23-4.46-31.27-18.69-38.17-36.92
	c-6.71-17.73-9.87-36.29-11.84-55.05c-4.13-39.31-0.19-78.17,6.62-116.86c1.4-7.94,3.03-15.84,4.53-23.77
	c1-5.31,0.82-5.46-4.35-4.74c-4.84,0.67-9.69,1.41-14.56,1.81c-6.03,0.49-6.11,0.34-6.58,6.38
	c-4.27,54.87-15.36,108.35-32.58,160.58c-5.66,17.18-11.68,34.23-19.22,50.69c-10.44,22.79-27.26,38.49-51.53,45.71
	c-32.97,9.81-68.5-2.78-87.98-31.07c-9.14-13.28-14.63-28.17-18.99-43.49c-6.75-23.73-13.16-47.57-19.7-71.36
	c-0.39-1.4-0.87-2.84-0.92-4.27c-0.11-3.43,1.85-5.43,5.03-6.29c3.21-0.87,5.93,0.02,7.46,3.01c0.99,1.93,1.46,4.13,2.05,6.25
	c6.9,24.7,13.7,49.44,20.7,74.11c3.01,10.6,6.83,20.95,12.9,30.23c13.48,20.62,32.12,32.72,57.26,32.64
	c25.43-0.08,44.24-12.25,57.44-33.51c5.04-8.12,8.45-17.07,11.81-26c17.56-46.58,30.52-94.39,37.81-143.65
	c4.01-27.11,7.19-54.34,6.54-81.85c-0.13-5.57-0.16-11.18-2.46-17.06c-3,4.09-2.22,8.69-3.26,12.76c-0.73,2.86-1.72,5.01-4.72,5.85
	c-5.35,1.51-9.38-2.27-8.53-8.43c0.97-7.02,2.28-13.99,3.57-20.96c0.61-3.32,0.13-6.96,2.51-9.81c1.31-1.56,0.36-2.69-0.61-3.81
	c-4.3-4.99-9.3-9.05-16.29-12.52c0,7.34,0.01,13.6-0.01,19.86c0,1.71,0.12,3.45-0.14,5.13c-0.62,4.01-3.28,6.29-6.94,6.21
	c-3.95-0.09-6.26-2.54-6.36-7.31c-0.14-7.34,0-14.69-0.06-22.03c-0.04-6.13-0.73-7.07-6.65-6.31c-14.23,1.84-12.37-0.23-11.55,13.89
	c0.3,5.08,1.69,10.11,2.73,15.14c1.24,5.94,0.1,8.91-4.08,10.01c-4.62,1.22-7.58-0.94-9.13-6.98c-1.76-6.84-2.83-13.82-3.41-20.77
	c-2.47-1.09-3.25,0.99-4.27,2.07c-6.87,7.35-10.47,16.41-13.09,25.92c-6.33,22.95-9.61,46.42-11.65,70.09
	c-0.42,4.9-1.13,9.71-2.83,14.34c-5.69,15.48-21.44,18.47-32.34,6.04c-2.24-2.55-4.12-5.48-5.89-8.39
	c-4.44-7.32-8.72-14.73-13.06-22.11c-0.74-1.26-1.98-2.53-2.05-3.85c-0.32-6-3.99-7.15-9.06-7.13c-3.4,0.01-6.96-0.15-10.19-1.12
	c-8.89-2.65-16.33-0.05-24.22,4.22c-35.6,19.26-65.81,44.93-91.43,76.04c-38.42,46.65-66.5,98.84-82.75,157.19
	c-8.3,29.79-10.97,60.08-6.87,90.83c0.64,4.84,0.81,10.04,2.8,14.33c2.71,5.85,3.65,11.8,5.02,17.95
	c2.59,11.65,8.26,22.43,15.03,32.42c5.36,7.92,12.77,13.36,21.24,17.57c14.97,7.43,30.99,11.95,46.8,17
	c30.29,9.67,61.02,17.69,92.36,23.16c7.32,1.28,14.72,2.58,23.71,1.78c-6.47-6.75-12.8-11.52-19.55-15.78
	c-2.69-1.69-5.52-3.15-8.23-4.81c-2.94-1.8-3.67-4.46-2.54-7.61c1.13-3.15,4.29-4.95,7.57-4.44c0.48,0.07,0.98,0.2,1.4,0.42
	c13.37,6.89,25.71,15.19,34.7,27.49c1.63,2.23,2.48,3.05,4.95,2.08c4.37-1.71,8.51-3.74,11.79-7.2c1.61-1.7,1.77-2.96-0.54-4.63
	c-8.95-6.44-16.64-14.37-24.92-21.61c-4.74-4.14-5.23-7.19-2.21-10.55c3.11-3.45,6.86-3.28,11.52,0.8
	c7.72,6.75,15.33,13.62,23.44,20.83c2.41-5.43,1.4-10.44,0.17-15.24c-3.09-12.11-10.73-20.76-21.71-26.34
	c-17.69-8.99-36.21-9.3-55.02-4.35c-11.95,3.15-22.82,8.64-32.67,16.14c-1.36,1.04-2.64,2.24-4.14,3.01
	c-3.22,1.67-6.68,0.9-8.56-1.66c-1.99-2.72-1.86-6.12,0.54-8.72c1.15-1.25,2.59-2.23,3.95-3.28c10.76-8.35,22.69-14.43,35.84-17.9
	c4.04-1.07,5.9-3.03,7.05-7.05c6.2-21.82,9.87-43.9,7.93-66.65c-1.58-18.58-6.6-36.13-17.56-51.44
	c-14.8-20.68-34.53-32.86-60.56-33.24c-2.91-0.04-5.82,0.72-8.74,0.9c-4.45,0.28-7.58-2.02-8.07-5.71
	c-0.53-3.96,1.92-6.83,6.98-7.58c21.69-3.25,41.34,2.31,58.91,14.89c21.05,15.06,33.21,36.22,39.24,60.99
	c6.52,26.77,4.23,53.43-2.18,79.91c-0.8,3.3-1.57,6.6-2.5,10.48c7.36,0.56,14.38,0.21,21.3,1.34c12.8,2.08,24.65,6.34,34.71,14.66
	c13.66,11.3,20.8,25.8,19.68,43.72c-0.96,15.43-8.35,26.92-21.95,34.64c-8.45,4.8-17.47,6.57-26.91,7.03
	c-10.31,0.5-20.51-0.49-30.67-2.34c-5.57-1.02-11.76-0.3-16.75-2.48c-7.76-3.39-16.39-2.06-23.96-5.97
	c-5.01-2.58-11.01-2.54-16.51-3.8c-16.06-3.69-31.39-9.6-47.18-14.01c-12.97-3.62-25.49-8.39-37.69-13.99
	c-13.96-6.4-23.52-17.27-31.06-30.43c-4.34-7.59-7-15.86-11.04-23.48c-1.31-2.46,0.83-6.08-2.32-7.09c-2.43-0.78-5.3-0.07-7.97-0.18
	c-20.11-0.79-37.88-8.43-54.23-19.44c-20.32-13.67-36.92-31.08-49.51-52.18c-7.97-13.34-14.38-27.42-18.77-42.31
	c-6.92-23.46-9.26-47.61-9.21-71.98c0.02-11,0.74-22.01,1.08-33.01c0.58-18.98-5.36-35.91-15.47-51.82
	c-3.87-6.09-8.73-10.77-14.03-15.35c-5.96-5.15-11.34-11.04-17.61-15.75c-4.51-3.39-8.62-6.96-12.29-11.21
	c-12.38-14.34-16.35-30.84-14.31-49.52c1.22-11.26,5.1-20.82,13.19-28.52c7.58-7.22,16.89-11.2,27.09-13.32
	c17.53-3.66,34.44-0.96,50.93,5.12c26.75,9.86,49,26.31,67.69,47.6c17.33,19.74,31.64,41.54,42.53,65.48
	c8.1,17.79,13.29,36.37,15.09,55.89c0.85,9.22,1.97,18.42,4.32,27.41c1.49,5.7,4.48,10.64,7.76,15.42c1.6,2.34,3.46,2.63,5.15,0.09
	c1.03-1.55,2.05-3.16,2.68-4.89c5-13.72,13.1-25.8,20-38.53c7.7-14.19,16.56-27.55,26.11-40.5c7.19-9.75,14.58-19.36,22.75-28.3
	c4.43-4.85,9.46-9.14,14.09-13.81c4.98-5.02,9.39-10.68,14.78-15.19c13.13-10.99,26.2-22.13,41.02-30.92c2.01-1.19,3.9-2.6,5.84-3.9
	c2.02,0.61,3-0.7,3.94-2.13C1277.3,1155.77,1275.95,1155.88,1274.58,1156.08z M1716.91,935.85c-0.37,0.13-0.74,0.25-1.11,0.38
	c0.32-0.18,0.63-0.35,0.94-0.53c0.78-0.33,1.95-0.4,1.17-1.76c5.6,0,9.28-3.98,13.61-6.6c1.93-1.01,3.9-1.96,5.78-3.06
	c1.21-0.7,1.51-1.86,0.71-3.06c-0.72-1.07-1.77-0.65-2.53-0.11c-1.99,1.38-3.89,2.9-5.82,4.36c-4.34,2.22-8.08,5.25-11.57,8.61
	C1717.31,934.41,1716.71,934.86,1716.91,935.85z M1028.15,1165.82c-18.37-18.14-40.04-30.07-65.49-34.95
	c-12.05-2.31-23.81-1.69-35.2,3.25c-10.93,4.74-17.51,13.1-19.94,24.6c-2.88,13.65,0.06,26.18,8.2,37.49
	c3.45,4.79,7.55,9,12.08,12.75c11.29,9.33,22.58,18.64,32.6,29.38c4.81,7.63,9.85,15.1,13.25,23.57c7.32,18.22,7.98,37.2,6.61,56.32
	c-1.37,19.13-0.88,38.14,2.06,57.07c4.62,29.7,14.92,57.13,33.22,81.25c17.6,23.19,39.68,40.32,67.56,49.51
	c6.28,2.07,12.59,3.67,19.5,2.42c-0.06-1.21,0.02-2.17-0.17-3.08c-6.68-30.58-5.98-61.14-0.08-91.75
	c3.8-19.74,9.66-38.85,16.98-57.53c1.23-3.14,1.39-5.11-1.66-7.42c-7.44-5.64-11.87-13.54-14.89-22.23
	c-2.42-6.95-3.71-14.17-4.54-21.47c-1.48-13.12-2.75-26.31-6.52-39.01c-11.34-38.15-32.41-70.35-60.6-98.12
	C1030.27,1167.06,1029.14,1166.51,1028.15,1165.82z M1566.58,1098.41c-2.48,3.99-3.27,7.31-4.14,10.57
	c-12.77,47.81-22.66,96.16-25.84,145.63c-2.07,32.19,0.51,64.04,9.69,95.16c2.29,7.78,5.2,15.27,9.99,21.91
	c4.42,6.12,10.05,10.7,17.31,12.96c2.24,0.7,4.86,1.74,6.82-0.62c2.54-3.07,5.71-2.33,8.78-1.6c5,1.2,9.72,0.39,14.29-1.64
	c6.27-2.77,10.75-7.6,14.44-13.17c5.3-8,8.88-16.84,12.15-25.82c13.21-36.29,18.31-73.95,18.58-112.34
	c0.19-27.44-2.22-54.75-5.8-81.94c-1.5-11.39-3.69-22.68-5.56-34.02c-0.33-2.02-0.48-3.56-3.59-2.94c-6.56,1.31-9-0.68-9.53-7.22
	c-0.59-7.32-0.99-14.65-0.67-22.01c0.08-1.7,0.64-3.56-0.56-4.98c-3.74-4.39-7.69-8.54-14.07-9.84c0,2.18-0.08,3.86,0.01,5.53
	c0.47,8.8,1.06,17.59,1.44,26.39c0.19,4.55-1.65,6.89-5.33,7.44c-3.83,0.57-7.18-1.66-7.87-5.88c-0.63-3.84-0.66-7.79-0.82-11.7
	c-0.31-7.68-0.64-15.36-1.74-23.05c-3.09,0.33-5.12,1.7-7.19,2.94c-4.86,2.92-7.65,6.46-7.44,12.93c0.37,11.02,0.55,22,2.49,32.88
	c1.09,6.07-0.74,9.66-5.1,10.29c-4.32,0.62-6.85-1.57-7.93-7.43C1568.32,1111.09,1567.61,1105.26,1566.58,1098.41z M1567.18,1559.23
	c-4.13-6.17-8.84-11.08-14.22-15.33c-3.06-2.42-6.44-4.43-9.54-6.8c-3.47-2.65-4.04-6.32-1.71-9.58c2.18-3.06,5.16-3.68,9.03-1.63
	c2.15,1.14,4.16,2.56,6.16,3.96c6.18,4.34,11.56,9.61,16.83,15.38c0.86-2.34,0.3-3.93-0.21-5.57
	c-10.5-33.56-51.26-42.21-75.54-18.11c-7.11,7.06-14.34,14.01-21.59,20.93c-3.48,3.32-7.13,6.46-10.72,9.69
	c11.03,10.24,33.6,17.24,45.09,14.19c-0.29-1.31-1.36-1.93-2.33-2.62c-0.99-0.71-2.14-1.22-3.04-2.03c-2.7-2.42-3.25-5.8-1.53-8.55
	c1.74-2.78,5.01-3.88,8.26-2.58c5.2,2.08,9.07,5.69,11.6,10.68c3.26,6.44,3.25,6.49,9.98,5.65c2.16-0.27,4.28-0.79,7.06-1.32
	c-2.47-4.67-4.86-8.88-6.95-13.23c-2.2-4.58-1.25-8.06,2.4-10.12c3.81-2.15,6.76-1.12,9.43,3.7c3.18,5.74,6.11,11.62,9.17,17.49
	C1559.01,1563.11,1562.93,1561.96,1567.18,1559.23z M1381.99,1163.63c-10.62,0-20.67,0-31.63,0c5.85,9.99,11.25,19.41,16.9,28.69
	c1.48,2.43,3.61,5.16,6.92,4.47c3.3-0.68,3.97-4.03,4.67-6.83C1380.98,1181.45,1380.81,1172.7,1381.99,1163.63z M1699.79,967
	c2.21-2.07,3.37-4.27,5.76-5.12c0.66-0.24,0.74-1.19,0.41-1.86c-0.19-0.38-0.82-0.93-0.99-0.85c-1.7,0.83-3.42,1.66-4.97,2.72
	C1698.14,963.17,1699.27,964.85,1699.79,967z M1701.7,971.72c-0.09-0.15-0.19-0.31-0.29-0.47c-0.14,0.13-0.36,0.26-0.38,0.4
	c-0.02,0.15,0.18,0.32,0.28,0.48C1701.43,972,1701.56,971.86,1701.7,971.72z"/>
<path class="st2" d="M1696.42,1345.27c1.69-2.38,3.27-4.78,4.53-7.45c4.86-10.29,13.02-17.46,22.72-22.94
	c13.66-7.72,28.7-11.77,43.64-16.07c5.6-1.61,11.21-3.18,16.82-4.76c0.03,2.89-0.41,5.74-0.12,8.68
	c1.66,16.57,13.02,26.73,29.72,26.27c1.48-0.04,2.89-0.13,4.25,0.53c2.76,8.44,8.77,13.09,17.31,14.68
	c10.61,1.97,21.29,1.67,31.93,0.5c9.14-1.01,18.23-2.59,27.34-3.91c2.75,10.36,9.69,17.28,18.52,22.67
	c14.82,9.03,31.09,11.54,48,9.88c20.02-1.97,37.02-9.08,45.06-29.56c7.68,3,15.45,5.83,23.61,7.1c19.91,3.1,35.01-4.78,39.41-19.18
	c9.73,0.46,16.73-4.39,22.51-11.59c6.45-8.04,8.19-17.54,8.45-27.49c10.62,0.54,20.31,4.53,29.9,8.55
	c16.32,6.85,31.14,16.04,42.76,29.69c5.18,6.09,10.33,12.3,10.87,20.85c-8.69-2.46-11.45-0.38-11.56,8.67
	c-0.07,5.79-0.17,11.58-0.25,17.36c-5.98,1.1-12.05,3.09-17.96,0.33c-3.46-1.62-5.02-0.95-6.74,2.39
	c-7.52,14.56-25.46,20.3-41.1,14.86c-3.23-1.13-4.83-0.56-6.7,1.96c-6.05,8.15-14.41,12.02-24.39,13.04
	c-8.37,0.86-16.55,0.02-24.55-2.37c-2.64-0.79-4.02-0.31-5.23,2.16c-5.92,12.06-16.59,15.98-29.02,16.06
	c-10.48,0.07-20.1-3.74-29.39-8.19c-3.45-1.65-5.55-2.09-8.62,1.38c-16.43,18.57-44.28,19.24-61.15,3.69
	c-2.73-2.52-4.58-3.04-7.17-0.01c-1.39,1.63-3.36,2.85-5.24,3.98c-13.5,8.11-26.84,5.12-37.2-5.48c-3.64-3.73-3.6-4.07-7.91-1.1
	c-14.81,10.17-40.2,10.78-56.61-1.85c-6.07-4.67-11.27-10.16-14.78-17.05c-1.27-2.48-2.58-3.49-4.92-1.23
	c-0.7,0.67-1.51,1.25-2.33,1.79c-7.78,5.1-16.52,6.7-25.31,4.76c-8.58-1.89-14.65-7.48-16.93-16.49c-1.31-5.16-1.43-5.01-6.83-4.05
	c-9.9,1.76-18.97,0.06-26.64-6.9c-0.11-8.31-0.19-16.62-0.34-24.93C1704.66,1347.4,1703.69,1346.37,1696.42,1345.27z"/>
<path class="st1" d="M2171.83,1377.75c0.08-5.79,0.18-11.58,0.25-17.36c0.1-9.05,2.87-11.13,11.56-8.67
	c2.15,2.72,1.86,5.93,1.86,9.1c-0.01,32.8,0,65.6,0,98.4c0,1.47,0.14,2.95-0.03,4.4c-0.42,3.63,0.98,4.88,4.74,5.51
	c18.02,2.99,35.08,9.06,51.08,17.83c12.81,7.03,24.02,16.38,35.44,25.44c8.73,6.93,15.26,15.34,20.64,25.01
	c10.51,18.91,7.72,36.7-3.42,54.17c-9.16,14.37-22.5,24.05-36.57,32.83c-12.42,7.75-25.34,14.59-38.86,20.33
	c-10.12,4.3-20.26,8.6-30.76,11.73c-20.81,6.21-41.64,12.32-62.92,16.95c-37.94,8.26-76.17,14.51-114.72,19.07
	c-36.56,4.33-73.22,5.31-109.93,3.89c-33.04-1.27-65.73-5.77-98.23-11.94c-13.43-2.55-26.76-5.59-39.92-9
	c-12.25-3.18-24.53-6.83-36.28-11.89c-8.09-3.49-16.61-6.02-24.57-9.76c-12.52-5.87-25.31-11.1-37.37-18.05
	c-12.01-6.92-23.23-15.02-35.16-21.94c-8.06-4.68-14.92-10.17-20.54-17.49c-8.94-11.65-11.1-25.02-10.38-39.21
	c1.01-19.73,9.08-36.16,23.78-49.1c9.96-8.76,21.57-15.24,33.27-21.44c10.27-5.45,20.39-11.21,31.23-15.47
	c4.05-1.59,5.63-3.83,5.59-8.42c-0.28-35.24-0.26-70.49-0.3-105.74c0-2.44,0.16-4.89,0.31-7.32c0.18-2.97,2.12-4.08,4.79-4.35
	c7.28,1.1,8.24,2.13,8.37,9.23c0.14,8.31,0.23,16.62,0.34,24.93c-0.6,10.76-0.49,21.51-0.06,32.27c-0.43,9.34-0.52,18.67,0.07,28.01
	c-0.57,18.95-0.6,37.9,0.03,56.85c-0.85,8.82-0.71,17.64-0.26,26.46c-0.77,12.41,1.4,24.35,5.92,35.87
	c3.62,9.23,9.59,16.29,18.7,20.71c7.26,3.52,14.54,6.95,22.08,9.84c43.07,16.48,87.43,28.08,133.04,34.78
	c20.59,3.03,41.35,4.62,62.17,4.21c29.68-0.59,58.95-4.7,87.89-11.23c28.89-6.52,57.36-14.36,84.36-26.8
	c14.04-6.47,27.47-13.96,38.87-24.63c10.2-9.55,16.25-20.72,13.9-35.22c0.35-11.34,0.54-22.67-0.1-34.01
	c0.7-16.65,0.39-33.31,0.16-49.97c-0.03-11.64-0.06-23.28-0.09-34.91C2172.3,1400.35,2172.26,1389.05,2171.83,1377.75z
	 M2185.49,1481.96c0,17.97-0.38,35.08,0.12,52.17c0.44,14.91-4.94,27.17-14.8,37.85c-5.84,6.33-12.61,11.56-19.81,16.25
	c-11.51,7.5-23.75,13.58-36.37,18.95c-26.44,11.23-54.06,18.49-82.13,24.15c-29.77,6-59.77,10.66-90.21,10.59
	c-39.07-0.08-77.48-5.98-115.39-15.12c-33.78-8.14-66.81-18.54-98.67-32.59c-18.22-8.04-28.91-21.74-33.67-40.76
	c-3.43-13.71-3.31-27.62-3.19-41.57c0.08-8.95,0.01-17.9,0.01-26.55c-1.46-0.91-2.41-0.42-3.24-0.02
	c-16.46,8.09-32.9,16.24-48.12,26.55c-14.48,9.82-25.22,22.5-28.22,40.31c-3.1,18.46,2.15,34.39,17.69,45.11
	c10.21,7.05,20.61,13.98,31.39,20.27c29.92,17.46,61.65,30.69,94.7,40.84c37.28,11.46,75.36,18.72,114.2,22.39
	c31.75,3,63.53,3.47,95.33,1.97c33.25-1.57,66.26-5.69,99.12-11.05c43.49-7.09,86.3-17.03,127.99-31.38
	c24.59-8.46,48.2-19.04,69.19-34.74c9.47-7.09,17.99-15.08,23.87-25.55c7.22-12.86,7-25.64-0.33-38.34
	c-3.07-5.33-6.82-10.21-11.4-14.3c-13.53-12.08-27.74-23.29-44.04-31.48C2215.91,1489.06,2201.63,1484.24,2185.49,1481.96z"/>
<path class="st3" d="M2006.13,1343.78c-8.04,20.48-25.04,27.59-45.06,29.56c-16.91,1.66-33.18-0.85-48-9.88
	c-8.84-5.39-15.78-12.31-18.52-22.67c-0.06-2.68,0.36-5.26,0.88-7.92c2.31-11.83,6.85-22.82,11.96-33.61c2.37-5,2.54-9.8-0.03-14.71
	c-1.25-2.38-2.28-4.88-3.67-7.17c-4.53-7.52-8.9-15.22-17.13-19.49c-2.12-1.1-4.36-3.02-6.72-1.02c-3,2.53-6.43,2.08-9.77,1.91
	c-5.04-0.25-9.66,0.99-14.11,3.14c-13.02,6.3-20.82,17.04-26.23,30.1c-5.05,12.18-7.19,25.22-11.76,37.51
	c-1.36-0.66-2.77-0.57-4.25-0.53c-16.69,0.46-28.06-9.7-29.72-26.27c-0.29-2.94,0.15-5.79,0.12-8.68
	c-0.33-7.51,2.54-14.23,6.37-20.24c8.25-12.97,16.93-25.68,25.83-38.21c6.28-8.84,15.25-13.97,26.08-14.59
	c12.87-0.73,22.98,5.23,30.79,15.11c2.07,2.61,3.83,5.53,5.32,8.62c1.91,3.95,2.95,3.81,6.39,1.13
	c9.42-7.34,20.17-11.66,31.98-13.07c8.62-1.03,15.65,2.9,21.81,8.4c3.04,2.71,5.61,5.95,8.39,8.95c1.52,2.96,3.51,5.79,4.41,8.93
	c0.88,3.07,3.03,2.38,4.95,2.76c5,0.09,6.95,4.86,10.66,7c9.54,5.49,18,12.3,24.23,21.56c8.79,13.07,15.72,26.77,14.8,43.18
	C2005.97,1336.96,2006.13,1340.37,2006.13,1343.78z M1940.68,1316.83c-0.97-4.04-0.15-8.64-2.26-12.67
	c-1.34-2.56-3.43-4.22-6.52-3.56c-3.06,0.66-5.92,2.34-5.86,5.64c0.08,4.57,0.29,9.28,2.01,13.64c1.25,3.17,3.78,4.31,7.08,3.77
	C1938.66,1323.07,1940.6,1320.74,1940.68,1316.83z M1953.45,1348.97c-0.45-2.36-0.87-5-1.47-7.59c-0.76-3.26-2.93-4.89-6.28-4.92
	c-3.37-0.02-5.61,1.75-6.47,4.83c-1.25,4.47,0.03,8.69,2.44,12.46c1.64,2.56,4.46,2.93,7.17,2.08
	C1951.92,1354.87,1953.52,1352.57,1953.45,1348.97z M1973.64,1307.83c-0.23-1.05-0.47-3.02-1.1-4.85c-1.18-3.43-3.98-5.05-7.37-4.52
	c-3.4,0.53-5.16,2.82-5.54,5.94c-0.23,1.86,0.31,3.86,0.72,5.76c1.02,4.78,3.29,6.67,7.36,6.28
	C1971.64,1316.06,1973.78,1313.29,1973.64,1307.83z M1813.6,1268.89c-4.11,0.11-8.64,6.09-8.43,11.13c0.14,3.34,3.3,6.43,6.67,6.54
	c4.16,0.13,8.7-5.52,8.78-10.94C1820.68,1271.79,1817.54,1268.78,1813.6,1268.89z M1982.03,1345.02c0.05-5.25-3.09-9.36-7.15-9.38
	c-4.01-0.02-6.93,3.26-6.88,7.73c0.06,4.88,3.03,8.42,7.13,8.51C1979.05,1351.96,1982,1349.04,1982.03,1345.02z M1942.91,1281.64
	c-0.04,5.01,2.29,7.97,6.39,8.13c4.17,0.16,6.84-2.72,7.01-7.57c0.18-5.18-2.54-8.6-6.81-8.55
	C1945.46,1273.7,1942.95,1276.74,1942.91,1281.64z M1844.83,1255.65c-0.06-5.02-2.52-7.68-6.9-7.46c-3.91,0.2-6.51,3.06-6.62,7.3
	c-0.12,4.48,2.78,7.85,6.83,7.93C1842.28,1263.51,1844.88,1260.49,1844.83,1255.65z M1921.41,1252.86
	c-0.03-4.13-2.77-7.07-6.61-7.07c-3.47-0.01-6.78,3.51-6.77,7.19c0.01,3.69,3.28,7.01,6.91,7.02
	C1918.78,1260.02,1921.44,1257.08,1921.41,1252.86z"/>
<path class="st4" d="M2006.13,1343.78c0-3.41-0.16-6.82,0.03-10.22c0.91-16.41-6.02-30.11-14.8-43.18
	c-6.22-9.26-14.69-16.07-24.23-21.56c-3.71-2.14-5.66-6.9-10.66-7c-0.45-5.67-3.19-10.1-7.45-13.71
	c0.67-12.65,6.87-22.55,15.52-31.23c1.2-1.21,2.41-2.42,3.57-3.67c10.98-11.8,24.42-14.9,39.88-11.71
	c8.52,1.76,14.13,7.34,19.18,13.65c4.12,5.15,8.22,10.09,14.26,13.17c3.93,2,6.05,5.43,5.84,10.03c-0.66,4.61-4.88,6.46-7.5,9.53
	c-3.55,4.17-3.69,5.78,0.57,8.82c14.04,10.01,20.53,24.82,26.01,40.31c4.01,11.3,2.97,23.03,2.79,34.67
	c-4.4,14.4-19.51,22.28-39.41,19.18C2021.58,1349.61,2013.81,1346.77,2006.13,1343.78z M2053.5,1288.2
	c-0.49-3.63-0.33-7.37-1.98-10.75c-1.29-2.64-3.47-4.17-6.49-3.72c-3.19,0.47-5.92,2.47-5.91,5.58c0.02,5.05,0.12,10.29,2.11,15.06
	c1.22,2.94,3.83,4.54,7.14,3.7c3.09-0.78,5.13-2.74,5.14-6.22C2053.5,1290.63,2053.5,1289.41,2053.5,1288.2z M2034.05,1329.28
	c-1.16-3.72-1.98-8.09-4.32-11.84c-1.56-2.5-4.12-3.47-7.01-2.62c-3.11,0.91-5.17,3.06-4.89,6.41c0.4,4.64,1.81,9.09,4.39,12.99
	c1.64,2.48,4.31,3.22,7.13,2.22C2032.4,1335.36,2034.07,1333.11,2034.05,1329.28z M1992.22,1231.72c-0.53-2.12-1.01-5.01-2.01-7.7
	c-1.15-3.09-3.78-4.31-7-3.93c-3.22,0.38-5.78,3.14-5.6,6.56c0.15,2.86,0.76,5.78,1.73,8.48c1.2,3.33,4.53,4.96,7.51,4.28
	C1989.85,1238.72,1992.08,1235.83,1992.22,1231.72z M2011.2,1213.95c-0.14-2.57-0.24-5.52-3.09-7.37c-2.58-1.68-6.53-1.17-8.67,1.11
	c-2.41,2.56-2.78,9.05-0.71,12.36c1.87,2.98,5.08,4.04,8.15,2.7C2010.61,1221.12,2011.29,1217.91,2011.2,1213.95z M2010.92,1286.13
	c-0.19,5.05,2.99,9.18,7.18,9.31c3.82,0.12,6.74-2.77,6.91-6.83c0.22-5.15-2.85-9.14-7.13-9.28
	C2014.05,1279.2,2011.07,1282.11,2010.92,1286.13z M2025.48,1233.85c-0.02-4.28-2.6-7.15-6.46-7.21c-3.73-0.05-6.75,3-6.89,6.97
	c-0.16,4.3,3,7.7,7.01,7.56C2022.98,1241.04,2025.5,1238.13,2025.48,1233.85z"/>
<path class="st3" d="M2069.16,1331.69c0.18-11.65,1.21-23.37-2.79-34.67c-5.49-15.48-11.98-30.3-26.01-40.31
	c-4.26-3.04-4.12-4.65-0.57-8.82c2.62-3.07,6.84-4.92,7.5-9.53c0.28,0.35,0.55,0.71,0.81,1.08c1.59,1.32,2.8,0.54,3.92-0.72
	c12.79-3.81,26.97,3.81,29.38,20.88c0.36,2.51,0.88,4.78,3.07,6.3c8.42,5.84,12.57,14.28,14.71,23.98c0.21,0.94,0.63,1.83,0.95,2.75
	c-0.27,9.95-2,19.45-8.45,27.49C2085.89,1327.31,2078.88,1332.15,2069.16,1331.69z M2077.81,1269.3c0.12-4.46-3.55-9.12-7.4-9.4
	c-4-0.29-7.05,2.46-7.16,6.43c-0.12,4.47,3.51,9.26,7.25,9.56C2074.05,1276.18,2077.71,1272.87,2077.81,1269.3z M2087.15,1303.63
	c0.01-4.43-2.89-7.93-6.75-8.13c-3.96-0.21-6.87,2.64-6.93,6.78c-0.06,4.49,2.76,7.87,6.72,8.07
	C2084.24,1310.55,2087.14,1307.75,2087.15,1303.63z"/>
<path class="st0" d="M1949.02,1248.11c4.25,3.61,7,8.04,7.45,13.71c-1.92-0.38-4.07,0.31-4.95-2.76c-0.9-3.14-2.9-5.96-4.41-8.93
	C1947.75,1249.46,1948.38,1248.79,1949.02,1248.11z"/>
<path class="st2" d="M2052.01,1238.72c-1.12,1.26-2.33,2.04-3.92,0.72C2049.4,1239.2,2050.7,1238.96,2052.01,1238.72z"/>
<path class="st2" d="M1524.11,1494.66c-0.51,0.46-1.05,0.4-1.11-0.26c-0.07-0.7,0.16-1.47,1.06-1.68
	C1524.46,1493.35,1524.75,1493.99,1524.11,1494.66z"/>
<path class="st2" d="M1340.86,681.29c-1.1-0.53-1.78-1.34-1.8-2.62C1340.31,679.1,1340.95,679.94,1340.86,681.29z"/>
<path class="st2" d="M1337.84,677c-0.74-0.13-1.13-0.56-1.14-1.32C1337.54,675.73,1337.93,676.16,1337.84,677z"/>
<path class="st2" d="M1342.16,683.01c-0.85-0.2-1.29-0.71-1.23-1.61C1341.79,681.59,1342.2,682.13,1342.16,683.01z"/>
<path class="st2" d="M1343.35,684.71c-0.85-0.26-1.24-0.84-1.2-1.72C1342.98,683.25,1343.45,683.78,1343.35,684.71z"/>
<path class="st2" d="M1339.11,678.73c-0.89-0.21-1.29-0.78-1.25-1.68C1338.75,677.26,1339.19,677.8,1339.11,678.73z"/>
<path class="st0" d="M1640.56,1078.52c-3.78-6.62-8.02-12.85-13.99-17.76c-16.04-13.19-34.86-13.34-50.93-0.21
	c-9.51,7.77-15.88,17.8-20.63,29c-6.33,14.94-9.58,30.75-13.1,46.48c-2.2,9.84-2.1,9.95-12.24,11.86
	c-5.75,1.08-11.53,2.09-17.35,2.14c-1.7-1.79-0.8-3.81-0.78-5.67c0.17-12.5-0.22-24.94-3.42-37.14
	c-7.06-26.85-27.16-44.68-54.39-47.2c-20.61-1.91-37.33,5.84-49.62,22.59c-8.28,11.3-11.95,24.53-14.87,37.94
	c-1.87,8.59-3.16,17.3-4.72,25.96c-0.3,1.66-0.28,3.41-1.86,5.37c-2.1-1.2-4.59-1.68-7.23-1.68c-26.21,0.04-52.21-2.23-78.02-6.9
	c-4.5-0.82-9.23,0.43-13.89-0.13c-17.1-2.06-33.57-6.16-49.16-13.73c-29.48-14.32-55.14-33.28-75.22-59.54
	c-22.25-29.1-34.09-61.81-35.59-98.34c-0.68-16.65-0.35-33.27,1.39-49.85c0.1-0.94,0.53-1.84,0.81-2.77c1.4,2.66,4.13,3.41,6.61,4.2
	c8.86,2.82,18,4.5,27.26,5.09c29.71,1.89,57.89-4.34,84.3-17.75c36.14-18.35,67.89-42.51,93.03-74.59
	c21.48-27.4,33.99-57.89,30.34-93.61c-0.62-6.1-2.53-11.91-3.09-17.98c16.57,4.02,33.23,5.38,50,1.32
	c3.55-0.86,7.42-1.39,10.43-3.24c10.45-6.42,21.67-4.71,32.7-3.45c21.82,2.5,42.18,9.85,61.63,19.9
	c23.56,12.18,44.76,27.8,65.09,44.67c7.52,6.24,14.91,12.63,22.37,18.95c1.3,1.1,2.54,2.35,4,3.19c3.47,2.01,7.57,1.03,9.7-2.13
	c1.9-2.82,1.6-5.55-1.58-8.37c-6.58-5.83-13.37-11.43-20.04-17.16c-2.4-2.06-4.72-4.21-7.08-6.31c0.74-21.74,1.59-43.49-2.51-65.05
	c-3.61-18.99-10.17-36.69-22.37-51.97c-7.05-8.83-16.14-10.74-26.07-5.38c-4.1,2.22-7.77,5.08-11.01,8.47
	c-16.38,17.16-32.78,34.3-49.17,51.45c-9.27-1.73-18.5-3.65-27.87-4.5c0.05-0.93-0.11-1.55,0.12-1.81
	c14.32-16,24.13-34.95,34.68-53.39c6.62-11.57,14.7-21.92,24.61-30.82c4.01-3.6,8.31-6.81,13.03-9.47
	c12.82-7.21,25.62-6.99,38.46-0.13c6.35,3.39,11.64,8.08,16.36,13.43c4.87,5.53,9.34,11.44,12.24,18.21
	c9.32,21.75,19.2,43.27,24.1,66.67c5.36,25.58,12.6,50.73,17.53,76.41c2.31,12.04,5.98,23.59,10.24,35.09
	c5.79,15.61,8.29,32.14,11.18,48.5c3.27,18.53,6.29,37.1,11.68,55.18c3.08,10.34,6.74,20.49,12.26,29.75
	c12.35,20.71,12.29,42.15,4.63,64.18c-7.24,20.83-20.32,37.74-35.91,52.93c-2.6,2.54-5.72,4.77-5.7,8.98
	C1641.49,1078.27,1641.02,1078.31,1640.56,1078.52z M1353.97,1042.76c0.62,2.58-1.86,2.94-3.09,3.99
	c-8.46,7.18-15.63,15.41-21.2,25.01c-1.34,2.31-2.84,4.66-1.46,7.53c1.27,2.63,3.36,4.26,6.24,4.46c3.05,0.22,4.86-1.71,6.28-4.21
	c5.6-9.9,12.92-18.31,22.1-25.08c0.59-0.43,1.18-0.89,1.66-1.44c3.84-4.37,2.22-9.85-3.42-11.31c-1.37-0.35-2.91-0.1-4.37-0.13
	c-0.46-1.33,0.83-1.41,1.41-2.02c3.24-3.39,3.75-5.9,1.94-9.09c-1.83-3.22-4.08-3.89-8.8-2.37c-2.78,0.9-5.53,1.92-8.21,3.09
	c-15.91,6.93-29.78,16.7-40.95,30.07c-3.33,3.99-3.3,7.8-0.36,10.4c3.12,2.77,6.57,2.31,10.23-1.4c0.51-0.52,0.97-1.1,1.46-1.65
	c10.08-11.31,22.31-19.63,36.07-25.79C1350.95,1042.17,1352.45,1040.9,1353.97,1042.76z M1582.2,977.06
	c16.22-0.05,28.89-12.83,28.67-28.91c-0.21-15.57-13.25-28.47-28.74-28.43c-15.91,0.04-28.78,13.19-28.58,29.22
	C1553.74,964.83,1566.26,977.11,1582.2,977.06z M1366.99,977.15c-0.06,16.05,12.86,29.02,28.81,28.92
	c15.65-0.1,28.43-12.88,28.52-28.54c0.09-15.74-12.46-28.6-28.13-28.79C1379.95,948.53,1367.05,961.08,1366.99,977.15z
	 M1514.2,980.94c-4.26-0.19-8.51,0.81-12.32,3.24c-3.86,2.46-7.01,5.68-6.73,10.61c0.28,5,3.7,8.07,8.13,9.36
	c3.38,0.99,4.98,2.44,4.89,5.99c-0.07,2.94,0.36,5.9-1.92,8.31c-2.69,2.85-7.11,2.96-9.91,0.34c-1.23-1.15-1-2.65-1.44-4
	c-1.18-3.66-4.45-5.85-7.66-5.41c-3.26,0.45-5.82,3.44-6.11,7.28c-0.25,3.33,0.98,6.2,2.97,8.82c7.66,10.09,21.65,11.74,31.02,3.19
	c2.71-2.48,4.46-3.03,7.94-1.55c9.88,4.19,22.22,0.03,27.77-8.78c2.94-4.67,2.88-8.89-0.17-11.29c-3.32-2.62-7.14-1.46-10.92,3.31
	c-0.15,0.19-0.28,0.4-0.44,0.59c-3.83,4.62-9.52,5.86-12.73,2.65c-2.35-2.36-2.82-5.62-3.59-8.69c-0.73-2.89,2-3.58,3.4-5.09
	c5.93-6.4,4.56-13.47-3.35-17.21C1520.31,981.32,1517.44,980.88,1514.2,980.94z M1352.28,1008.47c-1.1,0.22-2.57,0.41-3.97,0.81
	c-27.62,7.79-51.45,21.88-71.14,42.85c-0.99,1.06-2.01,2.17-2.71,3.43c-1.61,2.92-0.82,6.44,1.85,8.49c2.64,2.02,5.4,2.12,8.01-0.06
	c1.12-0.93,2.05-2.09,3.06-3.14c18.01-18.69,39.46-31.61,64.49-38.55c1.17-0.33,2.37-0.6,3.49-1.08c3.59-1.55,4.98-4.09,4.18-7.47
	C1358.77,1010.39,1356.19,1008.43,1352.28,1008.47z"/>
<path class="st2" d="M1364.22,724.29c0.56,6.07,2.47,11.88,3.09,17.98c3.65,35.72-8.86,66.2-30.34,93.61
	c-25.14,32.08-56.88,56.24-93.03,74.59c-26.41,13.41-54.58,19.64-84.3,17.75c-9.26-0.59-18.4-2.27-27.26-5.09
	c-2.48-0.79-5.22-1.54-6.61-4.2c1.52-6.29,0.63-12.67,0.53-19c-1.35-85.73,10.48-169.6,35.4-251.62c3.13-10.3,6.81-20.4,12.27-29.75
	c12.76-21.84,32.41-29.68,56.81-22.75c9.99,2.84,19.06,7.53,27.64,13.26c21.27,14.2,38.15,32.74,52.69,53.55
	c6.02,8.61,11.68,17.48,17.73,26.08c8.91,12.68,18.72,24.49,32.43,32.42C1362.47,721.82,1363.25,723.22,1364.22,724.29z
	 M1188.1,859.88c0,1.47-0.1,2.94,0.02,4.4c0.49,6.36,3.82,7.99,9.06,4.49c1.02-0.68,2.04-1.34,3.02-2.07
	c24.49-18.25,49.02-36.45,73.43-54.8c8.59-6.45,17.71-12.34,25.04-20.28c16.73-18.13,18.04-30.54,6.28-50.02
	c-5.18-8.57-9.76-17.51-14.84-26.15c-12.15-20.65-24.9-40.93-38.97-60.34c-5.96-8.22-12.77-15.4-22.43-19.36
	c-13.28-5.45-25.83-1.45-32.67,10.8c-3.65,6.52-4.86,13.8-5.15,21.16c-0.69,17.34-0.64,34.69-1.07,52.04
	C1188.64,766.46,1189.96,813.19,1188.1,859.88z"/>
<path class="st0" d="M1028.15,1165.82c1,0.68,2.12,1.23,2.97,2.06c28.19,27.77,49.26,59.97,60.6,98.12
	c3.77,12.7,5.05,25.89,6.52,39.01c0.82,7.31,2.12,14.52,4.54,21.47c3.02,8.69,7.45,16.58,14.89,22.23c3.05,2.31,2.89,4.28,1.66,7.42
	c-7.32,18.68-13.18,37.79-16.98,57.53c-5.89,30.61-6.6,61.17,0.08,91.75c0.2,0.9,0.11,1.87,0.17,3.08
	c-6.91,1.25-13.22-0.35-19.5-2.42c-27.88-9.19-49.96-26.32-67.56-49.51c-18.29-24.11-28.6-51.55-33.22-81.25
	c-2.94-18.93-3.43-37.93-2.06-57.07c1.37-19.13,0.71-38.11-6.61-56.32c-3.41-8.48-8.44-15.94-13.25-23.57
	c-0.07-1.46-0.12-2.93-0.21-4.39c-0.98-15.19,1.46-29.64,8.96-43.09c8.05-14.42,22.87-21.66,39.32-19.15
	c2.87,0.44,5.89,0.58,8.76,0.25C1021.62,1171.46,1025.98,1170.48,1028.15,1165.82z"/>
<path class="st0" d="M1566.58,1098.41c1.02,6.85,1.74,12.68,2.8,18.44c1.08,5.86,3.61,8.05,7.93,7.43c4.37-0.63,6.19-4.22,5.1-10.29
	c-1.95-10.88-2.13-21.86-2.49-32.88c-0.21-6.46,2.57-10.01,7.44-12.93c2.07-1.24,4.1-2.61,7.19-2.94c1.1,7.69,1.43,15.36,1.74,23.05
	c0.16,3.91,0.19,7.86,0.82,11.7c0.69,4.22,4.05,6.46,7.87,5.88c3.68-0.55,5.53-2.89,5.33-7.44c-0.38-8.8-0.97-17.59-1.44-26.39
	c-0.09-1.67-0.01-3.35-0.01-5.53c6.37,1.29,10.33,5.45,14.07,9.84c1.21,1.41,0.64,3.28,0.56,4.98c-0.33,7.35,0.07,14.69,0.67,22.01
	c0.53,6.55,2.97,8.54,9.53,7.22c3.1-0.62,3.25,0.92,3.59,2.94c1.88,11.34,4.07,22.63,5.56,34.02c3.58,27.19,5.99,54.5,5.8,81.94
	c-0.27,38.4-5.37,76.06-18.58,112.34c-3.27,8.97-6.84,17.81-12.15,25.82c-3.69,5.58-8.18,10.4-14.44,13.17
	c-4.57,2.02-9.29,2.83-14.29,1.64c-3.08-0.74-6.24-1.47-8.78,1.6c-1.96,2.37-4.58,1.32-6.82,0.62c-7.26-2.27-12.89-6.84-17.31-12.96
	c-4.79-6.64-7.69-14.13-9.99-21.91c-9.18-31.12-11.76-62.97-9.69-95.16c3.18-49.47,13.07-97.83,25.84-145.63
	C1563.31,1105.72,1564.1,1102.4,1566.58,1098.41z"/>
<path class="st2" d="M1480.33,709.19c16.39-17.15,32.79-34.29,49.17-51.45c3.24-3.39,6.9-6.25,11.01-8.47
	c9.93-5.37,19.03-3.45,26.07,5.38c12.2,15.28,18.76,32.98,22.37,51.97c4.09,21.56,3.24,43.31,2.51,65.05
	c-6.17-4.73-12.33-9.47-18.52-14.19C1544.84,736.05,1514.74,718.49,1480.33,709.19z"/>
<path class="st2" d="M1028.15,1165.82c-2.16,4.66-6.53,5.63-10.92,6.14c-2.88,0.33-5.89,0.19-8.76-0.25
	c-16.44-2.51-31.27,4.73-39.32,19.15c-7.51,13.45-9.94,27.9-8.96,43.09c0.09,1.46,0.14,2.93,0.21,4.39
	c-10.01-10.74-21.31-20.04-32.6-29.38c-4.53-3.75-8.63-7.96-12.08-12.75c-8.13-11.31-11.08-23.84-8.2-37.49
	c2.43-11.5,9.01-19.86,19.94-24.6c11.38-4.94,23.14-5.56,35.2-3.25C988.11,1135.76,1009.78,1147.69,1028.15,1165.82z"/>
<path class="st0" d="M1567.18,1559.23c-4.25,2.73-8.17,3.88-12.38,4.21c-3.06-5.87-6-11.75-9.17-17.49
	c-2.67-4.82-5.62-5.85-9.43-3.7c-3.65,2.06-4.6,5.54-2.4,10.12c2.09,4.36,4.48,8.57,6.95,13.23c-2.77,0.53-4.9,1.05-7.06,1.32
	c-6.73,0.84-6.71,0.79-9.98-5.65c-2.53-5-6.4-8.6-11.6-10.68c-3.24-1.3-6.52-0.2-8.26,2.58c-1.72,2.75-1.17,6.13,1.53,8.55
	c0.9,0.8,2.04,1.32,3.04,2.03c0.97,0.69,2.04,1.31,2.33,2.62c-11.49,3.05-34.06-3.95-45.09-14.19c3.59-3.24,7.24-6.37,10.72-9.69
	c7.25-6.92,14.48-13.86,21.59-20.93c24.28-24.11,65.04-15.46,75.54,18.11c0.51,1.64,1.07,3.23,0.21,5.57
	c-5.27-5.76-10.65-11.03-16.83-15.38c-2-1.4-4.01-2.83-6.16-3.96c-3.87-2.05-6.85-1.43-9.03,1.63c-2.32,3.26-1.76,6.92,1.71,9.58
	c3.1,2.37,6.48,4.38,9.54,6.8C1558.34,1548.15,1563.05,1553.06,1567.18,1559.23z"/>
<path class="st0" d="M1381.99,1163.63c-1.18,9.07-1.01,17.82-3.13,26.32c-0.7,2.8-1.37,6.15-4.67,6.83
	c-3.31,0.69-5.44-2.04-6.92-4.47c-5.66-9.27-11.05-18.7-16.9-28.69C1361.32,1163.63,1371.37,1163.63,1381.99,1163.63z"/>
<path class="st2" d="M1640.56,1078.52c0.46-0.21,0.94-0.25,1.43-0.12c1,1.44,2.01,2.88,3,4.31c-0.59,0.49-1.18,0.99-1.77,1.48
	C1641.58,1082.65,1641.19,1080.53,1640.56,1078.52z"/>
<path class="st2" d="M1716.75,935.7c-0.32,0.18-0.63,0.35-0.95,0.53c0.37-0.13,0.74-0.25,1.11-0.38L1716.75,935.7z"/>
<path class="st2" d="M1701.7,971.72c-0.13,0.14-0.27,0.28-0.4,0.41c-0.1-0.16-0.29-0.33-0.28-0.48c0.02-0.15,0.24-0.27,0.38-0.4
	C1701.5,971.41,1701.61,971.57,1701.7,971.72z"/>
<path class="st2" d="M1716.91,935.85c-0.2-0.99,0.4-1.44,1.18-1.78c-0.01,0-0.16-0.13-0.16-0.13c0.77,1.36-0.4,1.43-1.17,1.76
	C1716.75,935.7,1716.91,935.85,1716.91,935.85z"/>
<path class="st0" d="M1705.06,1411.7c-0.43-10.76-0.54-21.52,0.06-32.27c7.67,6.96,16.74,8.66,26.64,6.9
	c5.4-0.96,5.51-1.11,6.83,4.05c2.29,9.01,8.36,14.6,16.93,16.49c8.79,1.94,17.54,0.34,25.31-4.76c0.82-0.54,1.63-1.11,2.33-1.79
	c2.34-2.25,3.65-1.25,4.92,1.23c3.51,6.89,8.71,12.38,14.78,17.05c16.41,12.63,41.81,12.01,56.61,1.85c4.31-2.96,4.27-2.62,7.91,1.1
	c10.36,10.6,23.69,13.59,37.2,5.48c1.88-1.13,3.85-2.35,5.24-3.98c2.59-3.03,4.44-2.51,7.17,0.01
	c16.87,15.55,44.72,14.89,61.15-3.69c3.07-3.47,5.18-3.03,8.62-1.38c9.29,4.45,18.92,8.26,29.39,8.19
	c12.43-0.08,23.1-4.01,29.02-16.06c1.21-2.46,2.59-2.95,5.23-2.16c8,2.39,16.17,3.22,24.55,2.37c9.97-1.02,18.34-4.89,24.39-13.04
	c1.87-2.52,3.46-3.09,6.7-1.96c15.64,5.44,33.58-0.3,41.1-14.86c1.73-3.34,3.28-4.01,6.74-2.39c5.91,2.76,11.98,0.77,17.96-0.33
	c0.43,11.3,0.47,22.6-0.02,33.9c-8.91,7.31-18.43,13.67-28.72,18.87c-30.38,15.36-63.26,21.12-96.58,25.11
	c-14.77,1.77-29.6,2.99-44.37,4.79c-16.97,2.08-34,3.46-51.07,3.86c-28.6,0.67-57.16-0.59-85.71-2.46
	c-18.29-1.2-36.44-2.96-54.52-5.95C1772.08,1449.47,1736.59,1435.37,1705.06,1411.7z"/>
<path class="st4" d="M1817.98,1329.52c4.57-12.29,6.71-25.33,11.76-37.51c5.41-13.06,13.22-23.79,26.23-30.1
	c4.45-2.15,9.07-3.39,14.11-3.14c3.34,0.17,6.77,0.63,9.77-1.91c2.36-1.99,4.6-0.08,6.72,1.02c8.23,4.27,12.6,11.97,17.13,19.49
	c1.38,2.29,2.42,4.8,3.67,7.17c2.57,4.91,2.4,9.71,0.03,14.71c-5.12,10.79-9.66,21.78-11.96,33.61c-0.52,2.66-0.94,5.24-0.88,7.92
	c-9.11,1.33-18.19,2.9-27.34,3.91c-10.63,1.17-21.32,1.47-31.93-0.5C1826.75,1342.61,1820.74,1337.96,1817.98,1329.52z
	 M1857.76,1276.73c0.1,1.36-0.16,3.58,1.17,5.51c1.88,2.73,4.5,3.68,7.59,2.8c5.31-1.5,4.43-6.29,5.03-10.18
	c0.55-3.53-0.87-6.19-4.27-7.47c-3.09-1.16-5.71-0.16-7.69,2.39C1858.2,1271.56,1857.76,1273.7,1857.76,1276.73z M1843.17,1312.65
	c0.12,0.65,0.22,1.87,0.56,3.02c1.36,4.58,4.84,6.94,8.56,5.88c3.83-1.09,5.5-4.42,4.63-9.25c-0.13-0.71-0.21-1.44-0.39-2.14
	c-1.08-4.01-3.65-6.04-7.16-5.71C1845.64,1304.79,1843.21,1307.8,1843.17,1312.65z M1888.28,1302.73c-0.12-4.62-2.88-7.76-6.86-7.79
	c-4.25-0.03-7.08,3.38-6.97,8.41c0.1,4.5,3,7.85,6.84,7.87C1885.39,1311.24,1888.4,1307.58,1888.28,1302.73z"/>
<path class="st0" d="M2185.49,1481.96c16.14,2.27,30.42,7.1,44.02,13.94c16.3,8.2,30.5,19.4,44.04,31.48
	c4.58,4.09,8.33,8.97,11.4,14.3c7.32,12.71,7.55,25.48,0.33,38.34c-5.88,10.47-14.41,18.46-23.87,25.55
	c-20.98,15.7-44.59,26.27-69.19,34.74c-41.7,14.35-84.5,24.29-127.99,31.38c-32.86,5.36-65.87,9.49-99.12,11.05
	c-31.8,1.5-63.58,1.03-95.33-1.97c-38.84-3.67-76.92-10.93-114.2-22.39c-33.05-10.16-64.78-23.38-94.7-40.84
	c-10.78-6.29-21.18-13.22-31.39-20.27c-15.54-10.73-20.8-26.66-17.69-45.11c2.99-17.81,13.74-30.49,28.22-40.31
	c15.22-10.31,31.66-18.46,48.12-26.55c0.83-0.41,1.78-0.9,3.24,0.02c0,8.65,0.06,17.6-0.01,26.55c-0.12,13.95-0.24,27.86,3.19,41.57
	c4.76,19.02,15.45,32.73,33.67,40.76c31.86,14.05,64.9,24.45,98.67,32.59c37.92,9.14,76.32,15.05,115.39,15.12
	c30.44,0.06,60.44-4.59,90.21-10.59c28.07-5.66,55.69-12.91,82.13-24.15c12.62-5.36,24.86-11.45,36.37-18.95
	c7.2-4.69,13.97-9.91,19.81-16.25c9.86-10.68,15.23-22.94,14.8-37.85C2185.11,1517.05,2185.49,1499.93,2185.49,1481.96z
	 M2217.28,1552.16c-0.06-9.21-2.39-17.85-7.29-25.72c-3.41-5.47-7.72-10.15-13.33-13.41c-3.81-2.22-7.14-1.18-9.29,2.54
	c-1.85,3.2-1.35,6.17,2.33,8.84c5.32,3.86,9.4,8.58,11.61,14.75c3.93,10.96,2.93,21.63-2.35,31.95
	c-4.66,9.12-11.46,16.4-19.49,22.61c-7.6,5.87-15.99,10.4-24.67,14.39c-29.66,13.63-60.51,23.62-92.55,29.88
	c-4.8,0.94-9.64,1.7-14.38,2.86c-3.27,0.8-5.31,4.13-4.78,7.24c0.56,3.27,2.65,5.21,5.89,5.65c1.41,0.19,2.92-0.07,4.36-0.31
	c36.31-6.26,71.31-16.86,104.87-32.09c15.23-6.91,29.5-15.39,41.17-27.67C2210.4,1582.03,2216.8,1568.42,2217.28,1552.16z
	 M1655.22,1555.84c0.23,16.34,6.57,29.49,17.45,40.56c14.66,14.92,32.26,25.28,51.7,32.66c3.88,1.47,7.82,2.85,11.84,3.88
	c3.83,0.99,6.89-0.92,8.05-4.46c1.17-3.56-0.25-6.65-3.99-8.29c-1.56-0.68-3.27-1.01-4.89-1.56c-21.18-7.17-40.4-17.61-55.41-34.53
	c-14.88-16.77-14.68-39.22,0-56.06c0.8-0.92,1.8-1.72,2.4-2.75c1.32-2.29,1.33-4.69-0.17-6.93c-1.66-2.48-4.03-3.44-6.98-3.02
	c-2.38,0.34-3.84,2.02-5.33,3.64C1660.15,1529.56,1655.78,1542.23,1655.22,1555.84z"/>
<path class="st5" d="M2171.9,1446.57c0.22,16.66,0.54,33.32-0.16,49.97c-2.56,0.65-3.94,2.81-5.67,4.49
	c-3.71,3.6-7.85,6.58-12.21,9.33c-9.97,6.29-20.71,11.03-31.51,15.6c-48.56,20.52-99.74,28.61-151.96,30.78
	c-22.43,0.93-44.94,0.92-67.43-0.79c-13.86-1.06-27.74-1.78-41.59-3.09c-18.74-1.77-37.25-4.77-55.52-9.15
	c-31.14-7.45-60.53-19.04-86.96-37.53c-4.58-3.2-8.52-7.32-13.74-9.62c-0.62-18.95-0.59-37.9-0.03-56.85
	c4.71,3.49,9.4,7.02,14.85,9.32c18.48,7.79,37.49,14.09,56.71,19.68c31.64,9.2,63.8,16,96.62,19.58c16.97,1.85,33.93,3.74,51.01,4
	c21.25,0.33,42.49,0.44,63.73-1.24c11.91-0.94,23.82-1.99,35.64-3.57c18.1-2.42,36.11-5.63,53.9-9.84
	c25.91-6.13,51.49-13.28,76.13-23.57C2159.76,1451.54,2165.23,1447.58,2171.9,1446.57z"/>
<path class="st0" d="M2171.84,1530.55c2.35,14.5-3.7,25.67-13.9,35.22c-11.4,10.67-24.83,18.17-38.87,24.63
	c-27,12.43-55.48,20.28-84.36,26.8c-28.94,6.53-58.22,10.64-87.89,11.23c-20.82,0.42-41.58-1.18-62.17-4.21
	c-45.61-6.7-89.97-18.3-133.04-34.78c-7.54-2.88-14.82-6.32-22.08-9.84c-9.1-4.41-15.08-11.48-18.7-20.71
	c-4.52-11.52-6.69-23.46-5.92-35.87c2.28,0.24,4.1,1.53,5.97,2.67c26.44,16.09,54.62,28.39,84,37.86
	c24.63,7.94,49.79,13.73,75.48,17.34c22.01,3.09,44.09,4.99,66.29,5.46c16.86,0.36,33.71,0.04,50.52-1.41
	c12.14-1.05,24.34-1.74,36.41-3.39c19.06-2.6,38.04-5.82,56.9-9.75c17.71-3.69,35.2-8.08,51.96-15.02
	C2147.27,1550.64,2160.14,1541.47,2171.84,1530.55z"/>
<path class="st2" d="M2171.84,1530.55c-11.69,10.93-24.57,20.09-39.43,26.25c-16.76,6.94-34.24,11.33-51.96,15.02
	c-18.86,3.93-37.83,7.15-56.9,9.75c-12.06,1.65-24.26,2.34-36.41,3.39c-16.81,1.45-33.67,1.76-50.52,1.41
	c-22.2-0.47-44.27-2.37-66.29-5.46c-25.69-3.61-50.85-9.4-75.48-17.34c-29.38-9.47-57.56-21.77-84-37.86
	c-1.87-1.14-3.69-2.43-5.97-2.67c-0.45-8.83-0.59-17.65,0.26-26.47c5.21,2.29,9.16,6.41,13.74,9.61
	c26.42,18.49,55.82,30.08,86.96,37.53c18.27,4.37,36.78,7.37,55.52,9.15c13.85,1.31,27.73,2.03,41.59,3.09
	c22.49,1.72,45,1.73,67.43,0.79c52.22-2.17,103.4-10.27,151.96-30.78c10.8-4.56,21.54-9.31,31.51-15.6
	c4.36-2.75,8.5-5.73,12.21-9.33c1.73-1.67,3.11-3.84,5.67-4.49C2172.37,1507.87,2172.19,1519.21,2171.84,1530.55z"/>
<path class="st2" d="M2171.9,1446.57c-6.67,1.01-12.14,4.98-18.18,7.5c-24.64,10.29-50.22,17.44-76.13,23.57
	c-17.79,4.21-35.8,7.42-53.9,9.84c-11.82,1.58-23.73,2.63-35.64,3.57c-21.23,1.68-42.48,1.56-63.73,1.24
	c-17.07-0.26-34.03-2.15-51.01-4c-32.82-3.58-64.98-10.38-96.62-19.58c-19.22-5.59-38.23-11.89-56.71-19.68
	c-5.45-2.3-10.14-5.82-14.85-9.32c-0.59-9.33-0.49-18.67-0.07-28.01c31.53,23.67,67.02,37.77,105.79,44.18
	c18.08,2.99,36.23,4.75,54.52,5.95c28.56,1.87,57.11,3.13,85.71,2.46c17.07-0.4,34.1-1.78,51.07-3.86
	c14.76-1.81,29.6-3.02,44.37-4.79c33.32-3.99,66.2-9.75,96.58-25.11c10.29-5.21,19.81-11.57,28.72-18.87
	C2171.84,1423.29,2171.87,1434.93,2171.9,1446.57z"/>
<path class="st2" d="M1940.68,1316.83c-0.08,3.91-2.02,6.24-5.55,6.82c-3.3,0.54-5.83-0.59-7.08-3.77
	c-1.72-4.37-1.93-9.07-2.01-13.64c-0.06-3.3,2.8-4.98,5.86-5.64c3.09-0.66,5.18,1,6.52,3.56
	C1940.52,1308.2,1939.71,1312.8,1940.68,1316.83z"/>
<path class="st2" d="M1953.45,1348.97c0.07,3.6-1.53,5.9-4.63,6.86c-2.71,0.84-5.53,0.48-7.17-2.08c-2.4-3.76-3.69-7.98-2.44-12.46
	c0.86-3.08,3.1-4.85,6.47-4.83c3.36,0.02,5.52,1.66,6.28,4.92C1952.59,1343.97,1953,1346.61,1953.45,1348.97z"/>
<path class="st2" d="M1973.64,1307.83c0.14,5.46-2,8.23-5.94,8.61c-4.06,0.39-6.34-1.49-7.36-6.28c-0.4-1.89-0.95-3.9-0.72-5.76
	c0.39-3.12,2.15-5.41,5.54-5.94c3.39-0.53,6.19,1.09,7.37,4.52C1973.17,1304.81,1973.41,1306.78,1973.64,1307.83z"/>
<path class="st2" d="M1813.6,1268.89c3.94-0.1,7.08,2.9,7.03,6.72c-0.08,5.42-4.62,11.08-8.78,10.94c-3.38-0.11-6.53-3.2-6.67-6.54
	C1804.96,1274.97,1809.49,1268.99,1813.6,1268.89z"/>
<path class="st2" d="M1982.03,1345.02c-0.04,4.02-2.98,6.95-6.9,6.86c-4.1-0.09-7.06-3.63-7.13-8.51c-0.06-4.47,2.86-7.75,6.88-7.73
	C1978.95,1335.65,1982.08,1339.77,1982.03,1345.02z"/>
<path class="st2" d="M1942.91,1281.64c0.04-4.9,2.55-7.94,6.59-7.99c4.27-0.05,7,3.38,6.81,8.55c-0.17,4.84-2.84,7.72-7.01,7.57
	C1945.2,1289.61,1942.87,1286.65,1942.91,1281.64z"/>
<path class="st2" d="M1844.83,1255.65c0.05,4.84-2.55,7.86-6.7,7.78c-4.05-0.08-6.95-3.46-6.83-7.93c0.11-4.24,2.71-7.1,6.62-7.3
	C1842.31,1247.98,1844.77,1250.63,1844.83,1255.65z"/>
<path class="st2" d="M1921.41,1252.86c0.03,4.22-2.63,7.15-6.48,7.13c-3.63-0.02-6.9-3.34-6.91-7.02c-0.01-3.68,3.3-7.19,6.77-7.19
	C1918.63,1245.8,1921.38,1248.73,1921.41,1252.86z"/>
<path class="st2" d="M2053.5,1288.2c0,1.22,0,2.43,0,3.65c-0.01,3.48-2.05,5.44-5.14,6.22c-3.31,0.84-5.92-0.77-7.14-3.7
	c-1.99-4.77-2.09-10.01-2.11-15.06c-0.01-3.11,2.72-5.11,5.91-5.58c3.02-0.45,5.21,1.08,6.49,3.72
	C2053.17,1280.82,2053,1284.56,2053.5,1288.2z"/>
<path class="st2" d="M2034.05,1329.28c0.02,3.83-1.65,6.08-4.69,7.16c-2.82,1-5.49,0.26-7.13-2.22c-2.58-3.9-3.99-8.35-4.39-12.99
	c-0.29-3.35,1.77-5.5,4.89-6.41c2.89-0.85,5.45,0.13,7.01,2.62C2032.07,1321.19,2032.88,1325.55,2034.05,1329.28z"/>
<path class="st2" d="M1992.22,1231.72c-0.13,4.11-2.36,7-5.38,7.69c-2.98,0.68-6.31-0.96-7.51-4.28c-0.97-2.69-1.58-5.62-1.73-8.48
	c-0.17-3.42,2.38-6.18,5.6-6.56c3.22-0.38,5.85,0.84,7,3.93C1991.21,1226.71,1991.69,1229.6,1992.22,1231.72z"/>
<path class="st2" d="M2011.2,1213.95c0.09,3.96-0.59,7.16-4.32,8.8c-3.07,1.35-6.28,0.28-8.15-2.7c-2.07-3.31-1.7-9.8,0.71-12.36
	c2.14-2.28,6.09-2.79,8.67-1.11C2010.95,1208.43,2011.05,1211.39,2011.2,1213.95z"/>
<path class="st2" d="M2010.92,1286.13c0.15-4.02,3.13-6.93,6.96-6.8c4.28,0.14,7.35,4.13,7.13,9.28c-0.17,4.06-3.1,6.94-6.91,6.83
	C2013.91,1295.31,2010.73,1291.18,2010.92,1286.13z"/>
<path class="st2" d="M2025.48,1233.85c0.02,4.28-2.5,7.19-6.34,7.33c-4.01,0.14-7.17-3.27-7.01-7.56c0.15-3.97,3.17-7.03,6.89-6.97
	C2022.88,1226.7,2025.45,1229.57,2025.48,1233.85z"/>
<path class="st2" d="M2077.81,1269.3c-0.1,3.57-3.76,6.88-7.31,6.59c-3.74-0.3-7.37-5.09-7.25-9.56c0.11-3.98,3.16-6.72,7.16-6.43
	C2074.26,1260.17,2077.93,1264.84,2077.81,1269.3z"/>
<path class="st2" d="M2087.15,1303.63c-0.01,4.11-2.91,6.92-6.95,6.72c-3.96-0.2-6.78-3.58-6.72-8.07c0.05-4.14,2.97-6.99,6.93-6.78
	C2084.26,1295.71,2087.16,1299.2,2087.15,1303.63z"/>
<path class="st1" d="M1582.2,977.06c-15.94,0.05-28.46-12.23-28.65-28.11c-0.19-16.03,12.67-29.18,28.58-29.22
	c15.49-0.04,28.53,12.85,28.74,28.43C1611.09,964.24,1598.42,977.01,1582.2,977.06z"/>
<path class="st1" d="M1366.99,977.15c0.06-16.07,12.96-28.62,29.19-28.42c15.67,0.2,28.23,13.05,28.13,28.79
	c-0.09,15.66-12.87,28.44-28.52,28.54C1379.85,1006.17,1366.93,993.2,1366.99,977.15z"/>
<path class="st1" d="M1514.2,980.94c3.24-0.06,6.11,0.37,8.83,1.66c7.91,3.74,9.28,10.81,3.35,17.21c-1.4,1.51-4.13,2.2-3.4,5.09
	c0.77,3.07,1.24,6.33,3.59,8.69c3.21,3.21,8.9,1.96,12.73-2.65c0.16-0.19,0.29-0.4,0.44-0.59c3.78-4.77,7.59-5.92,10.92-3.31
	c3.05,2.4,3.12,6.62,0.17,11.29c-5.55,8.81-17.9,12.97-27.77,8.78c-3.49-1.48-5.23-0.93-7.94,1.55c-9.37,8.55-23.36,6.9-31.02-3.19
	c-1.99-2.62-3.22-5.48-2.97-8.82c0.29-3.84,2.85-6.83,6.11-7.28c3.22-0.44,6.48,1.75,7.66,5.41c0.44,1.35,0.21,2.85,1.44,4
	c2.81,2.62,7.22,2.51,9.91-0.34c2.27-2.41,1.84-5.37,1.92-8.31c0.09-3.55-1.51-5.01-4.89-5.99c-4.43-1.29-7.85-4.36-8.13-9.36
	c-0.28-4.94,2.86-8.16,6.73-10.61C1505.69,981.76,1509.95,980.75,1514.2,980.94z"/>
<path class="st1" d="M1352.28,1008.47c3.91-0.04,6.49,1.92,7.27,5.26c0.8,3.38-0.59,5.92-4.18,7.47c-1.11,0.48-2.31,0.76-3.49,1.08
	c-25.03,6.94-46.48,19.86-64.49,38.55c-1.02,1.05-1.95,2.21-3.06,3.14c-2.61,2.17-5.37,2.08-8.01,0.06
	c-2.67-2.05-3.46-5.57-1.85-8.49c0.69-1.26,1.71-2.37,2.71-3.43c19.69-20.96,43.52-35.06,71.14-42.85
	C1349.72,1008.88,1351.18,1008.69,1352.28,1008.47z"/>
<path class="st1" d="M1353.96,1042.76c-1.52-1.86-3.02-0.59-4.48,0.07c-13.76,6.16-25.99,14.48-36.07,25.79
	c-0.49,0.55-0.94,1.12-1.46,1.65c-3.66,3.71-7.1,4.17-10.23,1.4c-2.93-2.61-2.97-6.41,0.36-10.4
	c11.17-13.37,25.04-23.14,40.95-30.07c2.68-1.17,5.43-2.19,8.21-3.09c4.71-1.52,6.97-0.85,8.8,2.37c1.81,3.19,1.3,5.69-1.94,9.09
	c-0.59,0.61-1.87,0.69-1.41,2.02l0.27-0.19c-1.84-1.07-3.35-1.49-3.14,1.56L1353.96,1042.76z"/>
<path class="st1" d="M1356.71,1041.57c1.46,0.03,2.99-0.22,4.37,0.13c5.65,1.46,7.26,6.94,3.42,11.31c-0.48,0.54-1.07,1-1.66,1.44
	c-9.18,6.76-16.5,15.17-22.1,25.08c-1.41,2.5-3.23,4.43-6.28,4.21c-2.88-0.2-4.97-1.83-6.24-4.46c-1.39-2.87,0.11-5.22,1.46-7.53
	c5.57-9.6,12.75-17.83,21.2-25.01c1.23-1.04,3.71-1.41,3.09-3.99c0,0-0.13,0.18-0.13,0.19c1.9,1.2,2.53-0.16,3.14-1.56
	L1356.71,1041.57z"/>
<path class="st5" d="M1188.1,859.88c1.86-46.69,0.54-93.43,1.71-140.12c0.43-17.35,0.39-34.7,1.07-52.04
	c0.29-7.37,1.51-14.64,5.15-21.16c6.85-12.25,19.4-16.24,32.67-10.8c9.66,3.96,16.47,11.14,22.43,19.36
	c14.08,19.41,26.82,39.69,38.97,60.34c5.08,8.64,9.66,17.57,14.84,26.15c11.77,19.48,10.45,31.88-6.28,50.02
	c-7.33,7.94-16.45,13.82-25.04,20.28c-24.42,18.35-48.94,36.55-73.43,54.8c-0.98,0.73-2.01,1.39-3.02,2.07
	c-5.24,3.5-8.57,1.87-9.06-4.49C1188.01,862.83,1188.1,861.35,1188.1,859.88z"/>
<path class="st2" d="M1857.76,1276.73c0.01-3.02,0.45-5.16,1.83-6.95c1.98-2.55,4.6-3.55,7.69-2.39c3.4,1.28,4.83,3.94,4.27,7.47
	c-0.61,3.89,0.27,8.67-5.03,10.18c-3.09,0.88-5.72-0.07-7.59-2.8C1857.59,1280.31,1857.85,1278.09,1857.76,1276.73z"/>
<path class="st2" d="M1843.17,1312.65c0.04-4.86,2.47-7.86,6.19-8.21c3.51-0.33,6.08,1.7,7.16,5.71c0.19,0.7,0.27,1.43,0.39,2.14
	c0.87,4.83-0.8,8.16-4.63,9.25c-3.71,1.06-7.19-1.3-8.56-5.88C1843.39,1314.52,1843.29,1313.3,1843.17,1312.65z"/>
<path class="st2" d="M1888.28,1302.73c0.12,4.86-2.89,8.51-6.99,8.49c-3.84-0.02-6.74-3.37-6.84-7.87
	c-0.11-5.03,2.72-8.44,6.97-8.41C1885.4,1294.96,1888.16,1298.1,1888.28,1302.73z"/>
<path class="st1" d="M2217.28,1552.16c-0.47,16.25-6.88,29.87-17.92,41.49c-11.67,12.28-25.94,20.76-41.17,27.67
	c-33.55,15.22-68.56,25.83-104.87,32.09c-1.43,0.25-2.94,0.5-4.36,0.31c-3.24-0.44-5.33-2.37-5.89-5.65
	c-0.53-3.11,1.52-6.44,4.78-7.24c4.74-1.16,9.59-1.92,14.38-2.86c32.05-6.26,62.89-16.25,92.55-29.88
	c8.68-3.99,17.07-8.52,24.67-14.39c8.03-6.21,14.83-13.49,19.49-22.61c5.28-10.32,6.28-20.99,2.35-31.95
	c-2.21-6.17-6.29-10.89-11.61-14.75c-3.68-2.67-4.18-5.64-2.33-8.84c2.15-3.71,5.48-4.75,9.29-2.54c5.61,3.27,9.92,7.94,13.33,13.41
	C2214.89,1534.32,2217.22,1542.96,2217.28,1552.16z"/>
<path class="st1" d="M1655.22,1555.84c0.56-13.61,4.93-26.28,14.67-36.85c1.49-1.62,2.95-3.31,5.33-3.64
	c2.94-0.41,5.32,0.55,6.98,3.02c1.5,2.24,1.49,4.64,0.17,6.93c-0.6,1.03-1.6,1.83-2.4,2.75c-14.68,16.85-14.88,39.29,0,56.06
	c15.01,16.91,34.23,27.36,55.41,34.53c1.62,0.55,3.33,0.87,4.89,1.56c3.74,1.64,5.16,4.73,3.99,8.29c-1.16,3.54-4.22,5.45-8.05,4.46
	c-4.01-1.04-7.96-2.41-11.84-3.88c-19.44-7.38-37.04-17.74-51.7-32.66C1661.79,1585.33,1655.45,1572.18,1655.22,1555.84z"/>
<path class="st0" d="M1356.98,1041.38c-0.61,1.4-1.24,2.76-3.14,1.56C1353.63,1039.89,1355.14,1040.31,1356.98,1041.38z"/>
<g>
	<path class="st6" d="M674.3,1799.9c0,0.35-0.35,66.21-0.35,134.16c21.61,2.09,47.39,3.83,73.53,1.74
		c1.39-68.65,3.83-137.3,3.83-137.3l43.21,1.05c0,0.35-2.44,64.12-4.18,129.98c6.97-1.74,19.86-4.53,26.83-6.62l5.23,42.17
		c-10.8,3.83-21.95,6.27-33.45,8.71c-0.7,46.35-2.09,86.42-2.09,96.53h-43.21c0-8.71,1.05-46.35,2.09-91.3
		c-25.79,1.39-50.18,0.7-71.79-1.74c0,45.3,0,84.33,0.35,97.92l-42.86,1.04c-0.7-14.64-0.7-56.45-0.7-103.85
		c-17.77-3.48-28.23-5.92-28.23-5.92l5.92-42.86c0.35,0,11.15,2.79,22.3,4.53c0.7-65.51,0.7-128.24,0.7-128.24H674.3z"/>
	<path class="st6" d="M856.56,1923.95c6.27-134.86,186.09-119.18,173.54,11.5c-2.79,24.74-5.58,84.68,18.82,101.06l-27.18,29.97
		c-8.36-5.92-19.17-14.29-27.88-33.1c-21.61,17.07-47.39,26.48-75.97,27.18c-78.06,2.44-113.25-106.98-8.02-129.63
		c24.74-5.58,52.97-6.97,77.36-14.98c-5.58-57.5-83.98-60.98-87.47,9.76L856.56,1923.95z M984.45,1961.24
		c-21.61,5.23-43.56,6.97-65.51,11.5c-52.97,11.85-28.92,45.65-1.74,45.3c27.53-1.39,50.18-13.94,67.25-34.85
		C984.45,1975.88,984.45,1969.26,984.45,1961.24z"/>
	<path class="st6" d="M1178.9,2051.84c-54.01,31.71-108.03-4.18-114.3-64.47c-6.62-60.98,47.04-109.42,106.28-96.18
		c0.35-32.06,2.44-61.68,8.02-80.85c24.04-90.95,113.25-58.89,101.41,14.98c-6.27,37.29-32.06,64.47-66.21,78.41
		c0.35,72.13,9.41,156.81,9.41,156.81l-42.86,4.88c0,0-0.7-5.58-1.39-13.94L1178.9,2051.84z M1107.11,1982.5
		c4.88,44.6,38.68,47.74,67.95,17.42c-1.74-18.82-2.44-41.12-3.83-63.77C1144.4,1920.12,1102.93,1944.86,1107.11,1982.5z
		 M1215.49,1854.26c12.2-9.06,19.51-20.91,21.95-35.89c4.53-26.48-9.06-26.48-17.07,2.79
		C1217.58,1830.22,1216.18,1841.37,1215.49,1854.26z"/>
	<path class="st6" d="M1302.6,1833.35c0-16.73,12.89-29.97,28.92-29.97c16.38,0,29.62,13.24,29.62,29.97
		c0,15.68-13.24,28.92-29.62,28.92C1315.5,1862.27,1302.6,1849.03,1302.6,1833.35z M1351.74,1887.02c0,0.35-3.83,154.37-3.83,165.87
		h-43.21c0-5.92,4.53-166.22,4.53-166.92L1351.74,1887.02z"/>
	<path class="st6" d="M1671.63,1962.98c5.92,48.79-28.57,89.91-76.66,95.13c-2.44,0.7-5.92,0.7-9.41,0.7
		c-143.92,2.44-141.83-275.99-1.04-273.2c59.24,1.74,88.86,53.32,95.83,106.28l-43.56,5.23c-3.49-29.97-17.42-67.6-53.67-68.3
		c-81.54-1.74-83.98,188.18,1.74,186.43c29.97-0.35,47.04-22.3,43.56-50.53L1671.63,1962.98z"/>
	<path class="st6" d="M1713.45,1923.95c6.27-134.86,186.09-119.18,173.54,11.5c-2.79,24.74-5.58,84.68,18.82,101.06l-27.18,29.97
		c-8.36-5.92-19.17-14.29-27.88-33.1c-21.61,17.07-47.39,26.48-75.97,27.18c-78.06,2.44-113.25-106.98-8.02-129.63
		c24.74-5.58,52.97-6.97,77.36-14.98c-5.58-57.5-83.98-60.98-87.47,9.76L1713.45,1923.95z M1841.34,1961.24
		c-21.61,5.23-43.56,6.97-65.51,11.5c-52.97,11.85-28.92,45.65-1.74,45.3c27.53-1.39,50.18-13.94,67.25-34.85
		C1841.34,1975.88,1841.34,1969.26,1841.34,1961.24z"/>
	<path class="st6" d="M2036.49,2056.03c0,0-20.91-66.91-68.65-62.03c0,31.71,1.74,60.29,1.74,60.98l-43.21,2.09
		c-3.14-60.98-12.89-223.72,43.91-259.96c40.77-26.48,90.6,9.06,78.06,57.5c-9.76,35.2-59.24,55.41-78.75,62.73
		c-0.35,7.32-1.39,14.64-1.39,23c51.92-15.33,68.65-46,68.65-46l37.98,20.56c0,0-14.98,27.53-53.66,49.83
		c39.73,25.79,56.45,78.06,56.45,78.41L2036.49,2056.03z M2006.52,1843.11c4.18-15.33-11.15-14.98-21.61-1.39
		c-3.83,5.23-7.32,14.98-9.76,27.18C1989.1,1862.62,2003.04,1853.56,2006.52,1843.11z"/>
	<path class="st6" d="M2259.16,2007.59c-9.76,38.33-53.67,53.66-87.12,46.35c-45.65-9.41-69-48.44-69-93.39
		c-1.39-132.07,145.31-132.07,152.28-50.53c2.44,31.36-13.24,60.63-43.56,71.44c-21.61,8.02-44.26,8.36-59.94,7.67
		c5.92,11.5,15.68,20.21,28.92,22.65c13.59,3.48,32.06-0.7,38.33-14.64L2259.16,2007.59z M2197.48,1940.68
		c19.86-6.62,24.74-46-12.2-43.21c-24.39,2.09-35.2,25.79-38.33,47.39C2158.1,1946.61,2177.97,1947.65,2197.48,1940.68z"/>
	<path class="st6" d="M2424.34,1899.21c0,0-23-10.45-47.74-13.24c-47.74-4.88-71.44,27.53-8.71,49.83
		c138,48.09,64.12,161.69-33.11,135.9c-22.65-5.92-43.56-19.51-56.1-42.16l37.29-21.26c6.62,11.5,17.77,18.12,29.97,21.26
		c49.14,13.24,87.47-24.74,7.67-52.62c-112.56-39.38-70.74-143.57,27.53-133.81c32.06,3.14,61.33,16.73,61.33,17.08L2424.34,1899.21
		z"/>
</g>
<g>
	<path class="st7" d="M944.04,2191.69c-3.77,0.42-7.82,0.63-12.15,0.63h-17.38l0.63,48.17c0,1.54-0.52,2.69-1.57,3.45
		c-1.05,0.77-2.23,1.15-3.56,1.15c-1.33,0-2.51-0.39-3.56-1.15c-1.05-0.76-1.57-1.92-1.57-3.45l-1.26-114.75
		c0.14-1.96,0.84-3.36,2.09-4.2c1.26-0.84,2.51-1.26,3.77-1.26h29.11c5.58,0,10.85,0.63,15.81,1.89c4.95,1.26,9.28,3.26,12.98,5.98
		c3.7,2.73,6.63,6.27,8.8,10.61c2.16,4.34,3.25,9.66,3.25,15.96c0,9.8-2.23,17.4-6.7,22.79c-4.47,5.39-10.33,9.28-17.59,11.66
		l29.32,47.34c0.84,1.26,1.01,2.51,0.52,3.77c-0.49,1.26-1.26,2.27-2.3,3.04c-1.05,0.77-2.2,1.15-3.45,1.15
		c-1.26,0-2.3-0.7-3.14-2.09L944.04,2191.69z M913.88,2129.7l0.63,52.35h17.38c4.47,0,8.97-0.31,13.51-0.94
		c4.54-0.62,8.62-1.91,12.25-3.86c3.63-1.95,6.56-4.73,8.8-8.34c2.23-3.61,3.28-8.41,3.14-14.39c-0.14-4.45-1.01-8.24-2.62-11.37
		c-1.61-3.13-3.77-5.7-6.49-7.72c-2.72-2.02-5.94-3.48-9.63-4.38c-3.7-0.9-7.64-1.36-11.83-1.36H913.88z"/>
	<path class="st7" d="M1054.19,2200.27c-1.96,1.12-5.34,2.17-10.16,3.14c-4.82,0.98-10.02,1.88-15.6,2.72
		c-5.59,0.84-11.03,1.54-16.34,2.09c-5.31,0.56-9.42,0.91-12.36,1.05c0.28,3.91,1.12,7.51,2.51,10.78c1.39,3.28,3.21,6,5.44,8.17
		c2.23,2.17,4.88,3.77,7.96,4.82c3.07,1.05,6.42,1.22,10.05,0.52c4.33-0.7,8.2-2.23,11.62-4.61c3.42-2.37,6.94-5.86,10.58-10.47
		c1.12-1.26,2.37-1.95,3.77-2.09c1.39-0.14,2.62,0.14,3.66,0.84c1.05,0.7,1.78,1.64,2.2,2.83c0.42,1.19,0.28,2.48-0.42,3.87
		c-4.75,6.15-9.53,10.68-14.35,13.61c-4.82,2.93-9.67,4.89-14.55,5.86c-5.17,0.98-10.09,0.8-14.76-0.52
		c-4.68-1.32-8.8-3.63-12.36-6.91c-3.56-3.28-6.39-7.43-8.48-12.46c-2.09-5.03-3.14-10.75-3.14-17.17c0-4.61,0.52-9.14,1.57-13.61
		c1.05-4.47,2.69-8.55,4.92-12.25c2.23-3.7,5.13-6.84,8.69-9.42c3.56-2.58,7.92-4.22,13.09-4.92c4.33-0.56,8.65-0.31,12.98,0.73
		c4.33,1.05,8.24,2.83,11.73,5.34c3.49,2.51,6.42,5.73,8.8,9.63c2.37,3.91,3.91,8.45,4.61,13.61
		C1056.14,2197.83,1055.58,2199.44,1054.19,2200.27z M1017.33,2176.61c-2.79,0.56-5.2,1.57-7.22,3.04
		c-2.03,1.47-3.74,3.18-5.13,5.13c-1.4,1.96-2.48,4.16-3.25,6.6c-0.77,2.44-1.29,4.99-1.57,7.64c7.96,0,15.53-0.63,22.72-1.89
		c7.19-1.26,14.62-2.72,22.3-4.4c-0.56-2.65-1.64-5.13-3.25-7.43c-1.61-2.3-3.63-4.22-6.07-5.76c-2.44-1.53-5.24-2.58-8.38-3.14
		C1024.35,2175.84,1020.96,2175.91,1017.33,2176.61z"/>
	<path class="st7" d="M1108.43,2242.58c-5.17,0.28-9.63-0.35-13.4-1.89c-3.77-1.53-7.05-3.63-9.84-6.28l-0.21,52.35
		c0,1.81-0.52,3.14-1.57,3.98s-2.24,1.26-3.56,1.26c-1.33,0-2.51-0.45-3.56-1.36c-1.05-0.91-1.57-2.27-1.57-4.08l0.63-110.57
		c0-1.81,0.52-3.17,1.57-4.08c1.05-0.91,2.23-1.36,3.56-1.36c1.33,0,2.51,0.45,3.56,1.36c1.05,0.91,1.57,2.27,1.57,4.08l-0.21,11.14
		c2.65-2.8,5.83-5.08,9.53-6.83c3.7-1.75,7.99-2.77,12.88-3.05c6.98-0.28,12.81,1.09,17.49,4.1c4.68,3.01,8.27,6.9,10.78,11.66
		c2.51,4.76,3.8,9.98,3.87,15.65c0.07,5.67-1.01,10.96-3.25,15.86c-2.23,4.9-5.73,9.07-10.47,12.5
		C1121.48,2240.44,1115.55,2242.3,1108.43,2242.58z M1108.43,2186.66c-4.89,0.28-9,1.61-12.36,3.98c-3.35,2.38-5.83,5.27-7.43,8.69
		c-1.61,3.42-2.41,7.12-2.41,11.1c0,3.98,0.84,7.64,2.51,11s4.12,6.15,7.33,8.38c3.21,2.23,7.26,3.35,12.15,3.35
		c5.03,0,9.18-1.18,12.46-3.56c3.28-2.37,5.72-5.3,7.33-8.8c1.6-3.49,2.41-7.29,2.41-11.41c0-4.12-0.84-7.89-2.51-11.31
		c-1.68-3.42-4.16-6.21-7.43-8.38C1117.19,2187.53,1113.17,2186.52,1108.43,2186.66z"/>
	<path class="st7" d="M1185.6,2240.48c-5.57,0.14-10.44-0.7-14.61-2.52c-4.18-1.82-7.62-4.31-10.33-7.46
		c-2.72-3.15-4.7-6.72-5.95-10.72c-1.25-3.99-1.88-8.09-1.88-12.29c0-4.2,0.69-8.26,2.09-12.18c1.39-3.92,3.44-7.42,6.16-10.5
		c2.71-3.08,6.05-5.57,10.02-7.46c3.97-1.89,8.59-2.91,13.88-3.05c5.29,0,9.95,0.95,13.99,2.84c4.03,1.89,7.38,4.41,10.02,7.56
		c2.64,3.15,4.59,6.76,5.84,10.82c1.25,4.06,1.88,8.19,1.88,12.4c0,4.06-0.66,8.02-1.98,11.87c-1.32,3.86-3.27,7.32-5.84,10.4
		c-2.57,3.08-5.81,5.57-9.71,7.46C1195.27,2239.54,1190.74,2240.48,1185.6,2240.48z M1185.71,2230.64c3.49,0,6.53-0.63,9.11-1.88
		c2.58-1.26,4.74-2.96,6.49-5.13c1.74-2.16,3.04-4.64,3.88-7.43c0.84-2.79,1.26-5.65,1.26-8.59s-0.45-5.79-1.36-8.59
		c-0.91-2.79-2.3-5.27-4.19-7.43c-1.89-2.16-4.19-3.87-6.91-5.13c-2.72-1.26-5.83-1.89-9.32-1.89c-3.49,0.14-6.56,0.91-9.22,2.3
		c-2.65,1.4-4.85,3.18-6.6,5.34c-1.75,2.17-3.07,4.61-3.98,7.33c-0.91,2.72-1.36,5.55-1.36,8.48c0.14,5.73,2.09,10.86,5.86,15.39
		C1173.14,2227.95,1178.58,2230.36,1185.71,2230.64z"/>
	<path class="st7" d="M1238.9,2227.92c2.09,2.09,5.16,3.74,9.22,4.92c4.05,1.19,8.09,1.71,12.15,1.57
		c4.05-0.14,7.61-0.98,10.68-2.51c3.07-1.53,4.61-3.98,4.61-7.33c0-3.07-1.01-5.44-3.04-7.12c-2.03-1.68-4.57-3.04-7.64-4.08
		c-3.07-1.05-6.42-1.95-10.05-2.72c-3.63-0.77-7.02-1.78-10.16-3.04c-3.14-1.26-5.86-2.93-8.17-5.03c-2.3-2.09-3.6-5.03-3.87-8.8
		c-0.28-3.91,0.28-7.33,1.68-10.26c1.39-2.93,3.31-5.41,5.76-7.43c2.44-2.02,5.24-3.56,8.38-4.61c3.14-1.05,6.39-1.71,9.74-1.99
		c4.74-0.28,9.21,0.52,13.4,2.41c4.19,1.89,7.4,4.43,9.63,7.64c0.84,1.26,1.12,2.48,0.84,3.67c-0.28,1.19-0.87,2.13-1.78,2.83
		c-0.91,0.7-1.99,0.98-3.25,0.84c-1.26-0.14-2.44-0.84-3.56-2.09c-1.82-1.95-4.19-3.45-7.12-4.5c-2.93-1.05-5.94-1.43-9.01-1.15
		c-3.91,0.42-7.33,1.64-10.26,3.67c-2.93,2.03-4.33,4.85-4.19,8.48c0,2.38,1.09,4.16,3.26,5.34c2.17,1.19,4.91,2.27,8.21,3.25
		c3.29,0.98,6.8,1.96,10.52,2.93c3.72,0.98,7.16,2.34,10.31,4.08c3.15,1.75,5.75,4.05,7.78,6.91c2.04,2.86,2.98,6.67,2.84,11.41
		c-0.14,3.77-1.3,6.98-3.47,9.63c-2.17,2.65-4.91,4.75-8.2,6.28c-3.29,1.54-6.97,2.58-11.04,3.14c-4.06,0.56-8.1,0.63-12.09,0.21
		c-4-0.42-7.71-1.29-11.14-2.62c-3.44-1.32-6.2-3.1-8.3-5.34c-1.26-1.26-1.82-2.65-1.68-4.19c0.14-1.54,0.66-2.83,1.57-3.88
		c0.91-1.05,2.06-1.67,3.46-1.88C1236.31,2226.35,1237.64,2226.8,1238.9,2227.92z"/>
	<path class="st7" d="M1325.6,2180.38l0.84,60.52c-0.14,1.54-0.7,2.65-1.68,3.35c-0.98,0.7-2.06,1.05-3.25,1.05
		c-1.19,0-2.34-0.35-3.46-1.05c-1.12-0.7-1.75-1.81-1.88-3.35l-0.84-60.1l-15.29,0.21c-1.68,0-3-0.45-3.98-1.36
		c-0.98-0.91-1.54-1.92-1.68-3.04c-0.14-1.12,0.21-2.2,1.05-3.25c0.84-1.05,2.16-1.57,3.98-1.57l15.71-0.42l-0.42-37.07
		c0-1.81,0.52-3.14,1.57-3.98c1.05-0.84,2.2-1.26,3.45-1.26c1.26,0,2.44,0.42,3.56,1.26c1.12,0.84,1.67,2.17,1.67,3.98l0.42,36.86
		l17.59-0.42c1.54,0,2.72,0.45,3.56,1.36c0.84,0.91,1.32,1.96,1.46,3.14c0.14,1.19-0.14,2.27-0.84,3.25
		c-0.7,0.98-1.82,1.47-3.35,1.47L1325.6,2180.38z"/>
	<path class="st7" d="M1421.3,2200.27c-1.96,1.12-5.34,2.17-10.16,3.14c-4.82,0.98-10.02,1.88-15.6,2.72
		c-5.59,0.84-11.03,1.54-16.34,2.09c-5.31,0.56-9.42,0.91-12.36,1.05c0.28,3.91,1.12,7.51,2.51,10.78c1.39,3.28,3.21,6,5.44,8.17
		c2.23,2.17,4.89,3.77,7.96,4.82c3.07,1.05,6.42,1.22,10.05,0.52c4.33-0.7,8.2-2.23,11.62-4.61c3.42-2.37,6.94-5.86,10.58-10.47
		c1.12-1.26,2.37-1.95,3.77-2.09c1.39-0.14,2.62,0.14,3.66,0.84c1.05,0.7,1.78,1.64,2.2,2.83c0.42,1.19,0.28,2.48-0.42,3.87
		c-4.75,6.15-9.53,10.68-14.35,13.61c-4.82,2.93-9.67,4.89-14.55,5.86c-5.17,0.98-10.09,0.8-14.76-0.52
		c-4.68-1.32-8.8-3.63-12.36-6.91c-3.56-3.28-6.39-7.43-8.48-12.46c-2.09-5.03-3.14-10.75-3.14-17.17c0-4.61,0.52-9.14,1.57-13.61
		c1.05-4.47,2.69-8.55,4.92-12.25c2.23-3.7,5.13-6.84,8.69-9.42c3.56-2.58,7.92-4.22,13.09-4.92c4.33-0.56,8.66-0.31,12.98,0.73
		c4.33,1.05,8.24,2.83,11.73,5.34c3.49,2.51,6.42,5.73,8.8,9.63c2.37,3.91,3.91,8.45,4.61,13.61
		C1423.26,2197.83,1422.7,2199.44,1421.3,2200.27z M1384.44,2176.61c-2.79,0.56-5.2,1.57-7.22,3.04c-2.03,1.47-3.74,3.18-5.13,5.13
		c-1.4,1.96-2.48,4.16-3.25,6.6c-0.77,2.44-1.29,4.99-1.57,7.64c7.96,0,15.53-0.63,22.72-1.89c7.19-1.26,14.62-2.72,22.3-4.4
		c-0.56-2.65-1.64-5.13-3.25-7.43c-1.61-2.3-3.63-4.22-6.07-5.76c-2.44-1.53-5.24-2.58-8.38-3.14
		C1391.46,2175.84,1388.07,2175.91,1384.44,2176.61z"/>
	<path class="st7" d="M1441.82,2172.21c0-1.81,0.51-3.14,1.54-3.98c1.02-0.84,2.19-1.26,3.49-1.26c1.3,0,2.46,0.42,3.49,1.26
		c1.02,0.84,1.54,2.17,1.54,3.98l0,9.63c2.23-2.09,4.78-3.73,7.64-4.92c2.86-1.18,5.76-1.78,8.69-1.78s5.83,0.7,8.69,2.09
		c2.86,1.4,5.34,3.56,7.43,6.49c0.97,1.54,1.39,3,1.26,4.4c-0.14,1.4-0.63,2.48-1.47,3.25c-0.84,0.77-1.92,1.08-3.25,0.94
		c-1.33-0.14-2.62-0.97-3.87-2.51c-3.07-3.91-6.77-5.62-11.1-5.13c-4.33,0.49-7.82,3.18-10.47,8.06c-1.12,2.38-1.92,5.17-2.41,8.38
		c-0.49,3.21-0.8,6.63-0.94,10.26l0.21,28.69c0,1.54-0.55,2.65-1.65,3.35c-1.1,0.7-2.26,1.05-3.49,1.05c-1.23,0-2.4-0.35-3.49-1.05
		c-1.09-0.7-1.64-1.81-1.64-3.35L1441.82,2172.21z"/>
	<path class="st7" d="M1500.67,2152.32c0-1.53,0.49-2.79,1.47-3.77c0.98-0.97,2.16-1.47,3.56-1.47c1.54,0,2.79,0.49,3.77,1.47
		c0.97,0.98,1.47,2.24,1.47,3.77c0,1.4-0.49,2.58-1.47,3.56c-0.98,0.98-2.24,1.47-3.77,1.47c-1.4,0-2.58-0.49-3.56-1.47
		C1501.16,2154.9,1500.67,2153.71,1500.67,2152.32z M1500.67,2173.47c0-1.81,0.56-3.14,1.68-3.98c1.12-0.84,2.34-1.26,3.67-1.26
		c1.33,0,2.55,0.42,3.67,1.26c1.12,0.84,1.68,2.17,1.68,3.98c0,6.28,0.03,12.22,0.1,17.8c0.07,5.59,0.17,11.1,0.31,16.54
		c0.14,5.45,0.24,10.96,0.31,16.55c0.07,5.58,0.1,11.52,0.1,17.8c0,1.53-0.56,2.69-1.68,3.46c-1.12,0.77-2.38,1.15-3.77,1.15
		c-1.4,0-2.65-0.39-3.77-1.15c-1.12-0.77-1.67-1.92-1.67-3.46c0-6.28-0.04-12.22-0.11-17.8c-0.07-5.58-0.14-11.1-0.21-16.55
		c-0.07-5.44-0.14-10.96-0.21-16.54C1500.7,2185.69,1500.67,2179.75,1500.67,2173.47z"/>
	<path class="st7" d="M1578.36,2168.44c0.14-1.81,0.73-3.14,1.78-3.98c1.05-0.84,2.2-1.26,3.46-1.26s2.37,0.42,3.35,1.26
		c0.98,0.84,1.54,2.17,1.68,3.98c0.42,11.87,0.7,23.74,0.84,35.6c0.14,11.87,0.63,24.16,1.47,36.86c-0.14,1.4-0.73,2.48-1.78,3.25
		c-1.05,0.77-2.17,1.15-3.35,1.15c-1.19,0-2.3-0.35-3.35-1.05s-1.64-1.81-1.78-3.35l-0.63-10.26c-3.21,2.93-7.16,5.03-11.83,6.28
		c-4.68,1.26-10.16,1.12-16.44-0.42c-3.77-0.84-6.98-2.3-9.63-4.4c-2.65-2.09-4.82-4.54-6.49-7.33c-1.68-2.79-2.9-5.86-3.66-9.22
		c-0.77-3.35-1.01-6.77-0.73-10.26c0.28-4.05,1.15-7.99,2.62-11.83c1.47-3.84,3.49-7.26,6.07-10.26c2.58-3,5.72-5.37,9.42-7.12
		c3.7-1.74,7.85-2.62,12.46-2.62c3.35,0.14,6.42,0.87,9.21,2.2c2.79,1.33,5.37,3.04,7.75,5.13c-0.14-1.95-0.25-3.98-0.31-6.07
		C1578.4,2172.63,1578.36,2170.54,1578.36,2168.44z M1554.42,2226.45c2.77,1.12,5.52,1.43,8.23,0.94c2.71-0.49,5.17-1.5,7.39-3.04
		c2.22-1.53,4.17-3.49,5.83-5.86c1.67-2.37,2.85-4.89,3.54-7.54l-0.42-11.73c-1.11-3.91-2.81-7.05-5.1-9.42
		c-2.29-2.37-4.83-4.01-7.6-4.92c-2.78-0.91-5.66-1.12-8.65-0.63c-2.98,0.49-5.69,1.64-8.12,3.46c-2.43,1.82-4.41,4.37-5.94,7.64
		c-1.53,3.28-2.22,7.22-2.08,11.83c0.14,4.05,1.21,7.85,3.23,11.41C1546.74,2222.16,1549.97,2224.78,1554.42,2226.45z"/>
	<path class="st7" d="M1732.71,2148.76c0.14,1.82-0.21,3.25-1.05,4.29c-0.84,1.05-1.88,1.68-3.14,1.89
		c-1.26,0.21-2.44-0.07-3.56-0.84c-1.12-0.77-1.88-1.99-2.3-3.66c-0.42-2.23-1.22-4.57-2.41-7.02c-1.19-2.44-2.72-4.61-4.61-6.49
		c-1.89-1.89-4.02-3.38-6.39-4.5c-2.38-1.12-4.89-1.6-7.54-1.47c-4.05,0.42-7.61,2.23-10.68,5.44c-3.07,3.21-5.62,7.26-7.64,12.15
		c-2.03,4.89-3.6,10.23-4.71,16.02c-1.12,5.79-1.75,11.41-1.88,16.86c-0.14,2.65-0.04,5.8,0.31,9.42c0.35,3.63,0.94,7.4,1.78,11.31
		c0.84,3.91,1.99,7.75,3.46,11.52c1.47,3.77,3.28,7.16,5.44,10.16c2.16,3,4.74,5.38,7.75,7.12c3,1.75,6.46,2.55,10.37,2.41
		c6-0.14,11.62-2.48,16.86-7.02c5.24-4.54,9.32-10.16,12.25-16.86c0.84-1.68,1.92-2.76,3.25-3.25c1.32-0.49,2.58-0.52,3.77-0.1
		c1.18,0.42,2.09,1.22,2.72,2.41c0.63,1.19,0.66,2.62,0.1,4.29c-1.54,4.61-3.7,8.8-6.49,12.57c-2.79,3.77-5.97,6.98-9.53,9.63
		c-3.56,2.65-7.33,4.71-11.31,6.18c-3.98,1.47-7.93,2.27-11.83,2.41c-7.4,0.28-13.61-1.64-18.64-5.76
		c-5.03-4.12-9.08-9.25-12.15-15.39c-3.07-6.14-5.24-12.84-6.49-20.1c-1.26-7.26-1.88-13.96-1.88-20.1c0-7.26,0.66-14.45,1.99-21.57
		c1.33-7.12,3.38-13.51,6.18-19.16c2.79-5.65,6.32-10.37,10.58-14.14c4.26-3.77,9.39-6.07,15.39-6.91c3.77-0.42,7.43,0.1,10.99,1.57
		c3.56,1.47,6.81,3.56,9.74,6.28c2.93,2.72,5.41,5.9,7.43,9.53C1730.85,2141.5,1732.15,2145.13,1732.71,2148.76z"/>
	<path class="st7" d="M1759.93,2172.21c0-1.81,0.51-3.14,1.54-3.98c1.02-0.84,2.19-1.26,3.49-1.26c1.3,0,2.46,0.42,3.49,1.26
		c1.02,0.84,1.54,2.17,1.54,3.98l0,9.63c2.23-2.09,4.78-3.73,7.64-4.92c2.86-1.18,5.76-1.78,8.69-1.78c2.93,0,5.83,0.7,8.69,2.09
		c2.86,1.4,5.34,3.56,7.43,6.49c0.97,1.54,1.39,3,1.26,4.4c-0.14,1.4-0.63,2.48-1.47,3.25c-0.84,0.77-1.92,1.08-3.25,0.94
		c-1.33-0.14-2.62-0.97-3.87-2.51c-3.07-3.91-6.77-5.62-11.1-5.13c-4.33,0.49-7.82,3.18-10.47,8.06c-1.12,2.38-1.92,5.17-2.41,8.38
		c-0.49,3.21-0.81,6.63-0.94,10.26l0.21,28.69c0,1.54-0.55,2.65-1.65,3.35c-1.1,0.7-2.26,1.05-3.49,1.05
		c-1.23,0-2.39-0.35-3.49-1.05c-1.09-0.7-1.64-1.81-1.64-3.35L1759.93,2172.21z"/>
	<path class="st7" d="M1877.2,2200.27c-1.96,1.12-5.34,2.17-10.16,3.14c-4.82,0.98-10.02,1.88-15.6,2.72
		c-5.59,0.84-11.03,1.54-16.34,2.09c-5.31,0.56-9.42,0.91-12.36,1.05c0.28,3.91,1.12,7.51,2.51,10.78c1.39,3.28,3.21,6,5.44,8.17
		c2.23,2.17,4.89,3.77,7.96,4.82c3.07,1.05,6.42,1.22,10.05,0.52c4.33-0.7,8.2-2.23,11.62-4.61c3.42-2.37,6.94-5.86,10.58-10.47
		c1.12-1.26,2.37-1.95,3.77-2.09c1.39-0.14,2.62,0.14,3.66,0.84c1.05,0.7,1.78,1.64,2.2,2.83c0.42,1.19,0.28,2.48-0.42,3.87
		c-4.75,6.15-9.53,10.68-14.35,13.61c-4.82,2.93-9.67,4.89-14.55,5.86c-5.17,0.98-10.09,0.8-14.76-0.52
		c-4.68-1.32-8.8-3.63-12.36-6.91c-3.56-3.28-6.39-7.43-8.48-12.46c-2.09-5.03-3.14-10.75-3.14-17.17c0-4.61,0.52-9.14,1.57-13.61
		c1.05-4.47,2.69-8.55,4.92-12.25c2.23-3.7,5.13-6.84,8.69-9.42c3.56-2.58,7.92-4.22,13.09-4.92c4.33-0.56,8.66-0.31,12.98,0.73
		c4.33,1.05,8.24,2.83,11.73,5.34c3.49,2.51,6.42,5.73,8.8,9.63c2.37,3.91,3.91,8.45,4.61,13.61
		C1879.16,2197.83,1878.6,2199.44,1877.2,2200.27z M1840.35,2176.61c-2.79,0.56-5.2,1.57-7.22,3.04c-2.03,1.47-3.74,3.18-5.13,5.13
		c-1.4,1.96-2.48,4.16-3.25,6.6c-0.77,2.44-1.29,4.99-1.57,7.64c7.96,0,15.53-0.63,22.72-1.89c7.19-1.26,14.62-2.72,22.3-4.4
		c-0.56-2.65-1.64-5.13-3.25-7.43c-1.61-2.3-3.63-4.22-6.07-5.76c-2.44-1.53-5.24-2.58-8.38-3.14
		C1847.36,2175.84,1843.97,2175.91,1840.35,2176.61z"/>
	<path class="st7" d="M1940.87,2168.44c0.14-1.81,0.73-3.14,1.78-3.98c1.05-0.84,2.2-1.26,3.46-1.26c1.26,0,2.37,0.42,3.35,1.26
		c0.97,0.84,1.53,2.17,1.67,3.98c0.42,11.87,0.7,23.74,0.84,35.6c0.14,11.87,0.63,24.16,1.46,36.86c-0.14,1.4-0.73,2.48-1.78,3.25
		c-1.05,0.77-2.17,1.15-3.35,1.15c-1.19,0-2.3-0.35-3.35-1.05c-1.05-0.7-1.64-1.81-1.78-3.35l-0.63-10.26
		c-3.21,2.93-7.16,5.03-11.83,6.28c-4.68,1.26-10.16,1.12-16.44-0.42c-3.77-0.84-6.98-2.3-9.63-4.4c-2.65-2.09-4.82-4.54-6.49-7.33
		c-1.68-2.79-2.9-5.86-3.67-9.22c-0.77-3.35-1.01-6.77-0.73-10.26c0.28-4.05,1.15-7.99,2.62-11.83c1.47-3.84,3.49-7.26,6.07-10.26
		c2.58-3,5.72-5.37,9.42-7.12c3.7-1.74,7.85-2.62,12.46-2.62c3.35,0.14,6.42,0.87,9.21,2.2c2.79,1.33,5.37,3.04,7.75,5.13
		c-0.14-1.95-0.25-3.98-0.31-6.07C1940.9,2172.63,1940.87,2170.54,1940.87,2168.44z M1916.92,2226.45c2.78,1.12,5.52,1.43,8.23,0.94
		c2.71-0.49,5.17-1.5,7.39-3.04c2.22-1.53,4.17-3.49,5.83-5.86c1.67-2.37,2.85-4.89,3.54-7.54l-0.42-11.73
		c-1.11-3.91-2.81-7.05-5.11-9.42c-2.29-2.37-4.83-4.01-7.6-4.92c-2.78-0.91-5.66-1.12-8.64-0.63c-2.98,0.49-5.69,1.64-8.12,3.46
		c-2.43,1.82-4.41,4.37-5.94,7.64c-1.53,3.28-2.22,7.22-2.08,11.83c0.14,4.05,1.21,7.85,3.23,11.41
		C1909.25,2222.16,1912.48,2224.78,1916.92,2226.45z"/>
	<path class="st7" d="M1997.41,2180.38l0.84,60.52c-0.14,1.54-0.7,2.65-1.67,3.35c-0.98,0.7-2.06,1.05-3.25,1.05
		c-1.19,0-2.34-0.35-3.46-1.05c-1.12-0.7-1.75-1.81-1.88-3.35l-0.84-60.1l-15.29,0.21c-1.68,0-3-0.45-3.98-1.36
		c-0.98-0.91-1.54-1.92-1.68-3.04c-0.14-1.12,0.21-2.2,1.05-3.25c0.84-1.05,2.16-1.57,3.98-1.57l15.71-0.42l-0.42-37.07
		c0-1.81,0.52-3.14,1.57-3.98c1.05-0.84,2.2-1.26,3.46-1.26c1.26,0,2.44,0.42,3.56,1.26c1.12,0.84,1.68,2.17,1.68,3.98l0.42,36.86
		l17.59-0.42c1.53,0,2.72,0.45,3.56,1.36c0.84,0.91,1.33,1.96,1.47,3.14c0.14,1.19-0.14,2.27-0.84,3.25
		c-0.7,0.98-1.82,1.47-3.35,1.47L1997.41,2180.38z"/>
	<path class="st7" d="M2034.69,2152.32c0-1.53,0.49-2.79,1.47-3.77c0.98-0.97,2.16-1.47,3.56-1.47c1.54,0,2.79,0.49,3.77,1.47
		c0.98,0.98,1.47,2.24,1.47,3.77c0,1.4-0.49,2.58-1.47,3.56c-0.98,0.98-2.23,1.47-3.77,1.47c-1.4,0-2.58-0.49-3.56-1.47
		C2035.17,2154.9,2034.69,2153.71,2034.69,2152.32z M2034.69,2173.47c0-1.81,0.56-3.14,1.67-3.98c1.12-0.84,2.34-1.26,3.67-1.26
		c1.32,0,2.55,0.42,3.66,1.26c1.12,0.84,1.68,2.17,1.68,3.98c0,6.28,0.03,12.22,0.1,17.8c0.07,5.59,0.17,11.1,0.31,16.54
		c0.14,5.45,0.24,10.96,0.31,16.55c0.07,5.58,0.1,11.52,0.1,17.8c0,1.53-0.56,2.69-1.68,3.46c-1.12,0.77-2.38,1.15-3.77,1.15
		c-1.4,0-2.65-0.39-3.77-1.15c-1.12-0.77-1.68-1.92-1.68-3.46c0-6.28-0.04-12.22-0.1-17.8c-0.07-5.58-0.14-11.1-0.21-16.55
		c-0.07-5.44-0.14-10.96-0.21-16.54C2034.72,2185.69,2034.69,2179.75,2034.69,2173.47z"/>
	<path class="st7" d="M2063.59,2178.7c-0.84-1.95-0.91-3.59-0.21-4.92c0.7-1.32,1.68-2.2,2.93-2.62c1.26-0.42,2.55-0.35,3.87,0.21
		c1.33,0.56,2.34,1.75,3.04,3.56l20.94,56.54l17.38-54.87c0.7-2.23,1.71-3.7,3.04-4.4c1.33-0.7,2.62-0.8,3.88-0.31
		c1.26,0.49,2.23,1.43,2.93,2.83c0.7,1.4,0.77,3,0.21,4.82l-20.1,59.27c-0.42,1.26-1.29,2.27-2.62,3.04
		c-1.33,0.77-2.83,1.26-4.5,1.47c-1.67,0.21-3.25,0.07-4.71-0.42c-1.47-0.49-2.48-1.5-3.04-3.04L2063.59,2178.7z"/>
	<path class="st7" d="M2179.81,2168.44c0.14-1.81,0.73-3.14,1.78-3.98c1.05-0.84,2.2-1.26,3.46-1.26s2.37,0.42,3.35,1.26
		c0.97,0.84,1.53,2.17,1.67,3.98c0.42,11.87,0.7,23.74,0.84,35.6c0.14,11.87,0.63,24.16,1.47,36.86c-0.14,1.4-0.73,2.48-1.78,3.25
		c-1.05,0.77-2.17,1.15-3.35,1.15c-1.19,0-2.3-0.35-3.35-1.05c-1.05-0.7-1.64-1.81-1.78-3.35l-0.63-10.26
		c-3.21,2.93-7.16,5.03-11.83,6.28c-4.68,1.26-10.16,1.12-16.44-0.42c-3.77-0.84-6.98-2.3-9.63-4.4c-2.65-2.09-4.82-4.54-6.49-7.33
		c-1.68-2.79-2.9-5.86-3.67-9.22c-0.77-3.35-1.01-6.77-0.73-10.26c0.28-4.05,1.15-7.99,2.62-11.83c1.47-3.84,3.49-7.26,6.07-10.26
		c2.58-3,5.72-5.37,9.42-7.12c3.7-1.74,7.85-2.62,12.46-2.62c3.35,0.14,6.42,0.87,9.21,2.2c2.79,1.33,5.37,3.04,7.75,5.13
		c-0.14-1.95-0.25-3.98-0.31-6.07C2179.85,2172.63,2179.81,2170.54,2179.81,2168.44z M2155.87,2226.45
		c2.78,1.12,5.52,1.43,8.23,0.94c2.71-0.49,5.17-1.5,7.39-3.04c2.22-1.53,4.17-3.49,5.83-5.86c1.67-2.37,2.85-4.89,3.54-7.54
		l-0.42-11.73c-1.11-3.91-2.81-7.05-5.11-9.42c-2.29-2.37-4.83-4.01-7.6-4.92c-2.78-0.91-5.66-1.12-8.64-0.63
		c-2.98,0.49-5.69,1.64-8.12,3.46c-2.43,1.82-4.41,4.37-5.94,7.64c-1.53,3.28-2.22,7.22-2.08,11.83c0.14,4.05,1.21,7.85,3.23,11.41
		C2148.19,2222.16,2151.42,2224.78,2155.87,2226.45z"/>
</g>
</svg>
